<svg width="24" height="24" viewBox="0 0 24 24" fill="none" xmlns="http://www.w3.org/2000/svg">
                                            <path d="M3.7361 4.5C2.77744 4.5 2.00032 5.27724 2.00049 6.2359V6.26829C2.01082 6.81904 2.28217 7.33272 2.73218 7.65165L2.74305 7.65929L10.7133 13.2171C11.3899 13.689 12.2611 13.7479 12.9863 13.3941C13.0899 13.3435 13.1906 13.2845 13.2872 13.2171L21.2571 7.65949C21.7227 7.33485 22.0001 6.8031 22 6.23554C21.9999 5.27702 21.2231 4.5 20.2646 4.5H3.7361Z" fill="black"></path>
                                            <path d="M22.0001 8.96994L14.145 14.4475C12.8562 15.3462 11.1438 15.3462 9.85507 14.4475L2.00023 8.97012L2 17.25C2 18.4926 3.00736 19.5 4.25 19.5H19.75C20.9926 19.5 22 18.4926 22 17.25L22.0001 8.96994Z" fill="black"></path>
                                        </svg>