<svg width="24" height="24" viewBox="0 0 24 24" fill="none" xmlns="http://www.w3.org/2000/svg">
                                        <path d="M9.40431 5.02115L10.0481 7.01934C10.0989 7.17723 10.1502 7.40219 10.119 7.65893C10.0253 8.4276 9.51225 9.0909 8.77424 9.36766L6.08207 10.3772C4.71175 10.8911 3.25 9.87809 3.25 8.41459V7.306C3.25 6.69945 3.53022 6.09966 4.05922 5.73225C5.31766 4.85823 6.72753 4.18597 8.24183 3.76283C9.43829 3.42851 10.699 3.25 12.0001 3.25C13.3012 3.25 14.5619 3.42851 15.7583 3.76282C17.2726 4.18595 18.6825 4.85822 19.9409 5.73224C20.47 6.09966 20.7502 6.69948 20.7502 7.30605L20.7501 8.41461C20.7501 9.87809 19.2884 10.8911 17.9181 10.3772L15.2259 9.36766C14.4879 9.0909 13.9748 8.4276 13.8812 7.65893C13.8499 7.40219 13.9012 7.17723 13.9521 7.01934L14.5958 5.02114C13.7592 4.84354 12.8909 4.75 12.0001 4.75C11.1093 4.75 10.241 4.84355 9.40431 5.02115Z" fill="black"></path>
                                        <path d="M9.99301 10.5309C11.2784 9.99897 12.7223 9.99897 14.0077 10.5309L18.8232 12.5235C19.4951 12.8015 19.9913 13.3872 20.1551 14.0957L21.0561 17.9932C21.3821 19.4033 20.3113 20.75 18.864 20.75H5.13671C3.6894 20.75 2.61853 19.4033 2.94454 17.9932L3.8456 14.0957C4.00941 13.3872 4.50554 12.8015 5.17749 12.5235L9.99301 10.5309ZM9.25024 15.5117C9.25024 17.0305 10.4814 18.2617 12.0002 18.2617C13.519 18.2617 14.7502 17.0305 14.7502 15.5117C14.7502 13.9929 13.519 12.7617 12.0002 12.7617C10.4814 12.7617 9.25024 13.9929 9.25024 15.5117Z" fill="black"></path>
                                    </svg>