<svg width="306" height="314" viewBox="0 0 306 314" fill="none" xmlns="http://www.w3.org/2000/svg">
<g filter="url(#filter0_d_4411_1783)">
<rect x="18.5" y="14.5" width="269" height="277" rx="7.5" fill="white" stroke="#F2F4F7"/>
<g filter="url(#filter1_ddd_4411_1783)">
<rect x="42" y="46" width="56" height="56" rx="4" fill="white"/>
</g>
<path fill-rule="evenodd" clip-rule="evenodd" d="M69.9592 86.5521C65.1007 86.5521 60.9502 85.8171 60.9502 82.8741C60.9502 79.9311 65.0737 77.3691 69.9592 77.3691C74.8177 77.3691 78.9682 79.9071 78.9682 82.8486C78.9682 85.7901 74.8447 86.5521 69.9592 86.5521Z" stroke="#2699FB" stroke-width="2" stroke-linecap="round" stroke-linejoin="round"/>
<path fill-rule="evenodd" clip-rule="evenodd" d="M69.9586 73.1735C73.1476 73.1735 75.7336 70.589 75.7336 67.4C75.7336 64.211 73.1476 61.625 69.9586 61.625C66.7696 61.625 64.1836 64.211 64.1836 67.4C64.1746 70.577 66.7396 73.163 69.9181 73.1735H69.9586Z" stroke="#2699FB" stroke-width="2" stroke-linecap="round" stroke-linejoin="round"/>
<path d="M79.5439 71.5875C81.3994 71.091 82.7674 69.399 82.7674 67.3845C82.7674 65.283 81.2779 63.528 79.2949 63.123" stroke="#2699FB" stroke-width="2" stroke-linecap="round" stroke-linejoin="round"/>
<path d="M80.415 76.3164C83.046 76.3164 85.293 78.0999 85.293 79.6929C85.293 80.6304 84.5175 81.6519 83.3415 81.9279" stroke="#2699FB" stroke-width="2" stroke-linecap="round" stroke-linejoin="round"/>
<path d="M60.3764 71.5875C58.5194 71.091 57.1514 69.399 57.1514 67.3845C57.1514 65.283 58.6424 63.528 60.6239 63.123" stroke="#2699FB" stroke-width="2" stroke-linecap="round" stroke-linejoin="round"/>
<path d="M59.503 76.3164C56.872 76.3164 54.625 78.0999 54.625 79.6929C54.625 80.6304 55.4005 81.6519 56.578 81.9279" stroke="#2699FB" stroke-width="2" stroke-linecap="round" stroke-linejoin="round"/>
<path d="M50.4055 142.508C50.3459 141.95 50.0945 141.515 49.6513 141.204C49.2124 140.893 48.6413 140.737 47.9382 140.737C47.4439 140.737 47.0199 140.812 46.6662 140.961C46.3125 141.11 46.0419 141.312 45.8544 141.568C45.6669 141.824 45.571 142.116 45.5668 142.444C45.5668 142.717 45.6286 142.953 45.7521 143.153C45.88 143.354 46.0526 143.524 46.2699 143.665C46.4872 143.801 46.728 143.916 46.9922 144.01C47.2564 144.104 47.5227 144.183 47.7912 144.246L49.0185 144.553C49.5128 144.668 49.9879 144.824 50.4439 145.02C50.9041 145.216 51.3153 145.463 51.6776 145.761C52.044 146.06 52.3338 146.42 52.5469 146.842C52.7599 147.263 52.8665 147.758 52.8665 148.325C52.8665 149.092 52.6705 149.767 52.2784 150.351C51.8864 150.93 51.3196 151.384 50.5781 151.712C49.8409 152.036 48.9482 152.198 47.8999 152.198C46.8814 152.198 45.9972 152.04 45.2472 151.725C44.5014 151.41 43.9176 150.95 43.4957 150.344C43.0781 149.739 42.8523 149.002 42.8182 148.133H45.1513C45.1854 148.589 45.326 148.968 45.5732 149.271C45.8203 149.573 46.142 149.799 46.5384 149.948C46.9389 150.097 47.3864 150.172 47.8807 150.172C48.3963 150.172 48.848 150.095 49.2358 149.942C49.6278 149.784 49.9347 149.567 50.1562 149.29C50.3778 149.009 50.4908 148.68 50.495 148.305C50.4908 147.964 50.3906 147.683 50.1946 147.462C49.9986 147.236 49.7237 147.048 49.37 146.899C49.0206 146.746 48.6115 146.609 48.1428 146.49L46.6534 146.107C45.5753 145.83 44.723 145.41 44.0966 144.847C43.4744 144.281 43.1634 143.528 43.1634 142.591C43.1634 141.82 43.3722 141.144 43.7898 140.565C44.2116 139.985 44.7848 139.536 45.5092 139.216C46.2337 138.892 47.054 138.73 47.9702 138.73C48.8991 138.73 49.7131 138.892 50.4119 139.216C51.1151 139.536 51.6669 139.981 52.0675 140.552C52.468 141.119 52.6747 141.771 52.6875 142.508H50.4055ZM59.521 152.192C58.5622 152.192 57.7313 151.981 57.0281 151.559C56.325 151.137 55.7796 150.547 55.3918 149.788C55.0083 149.03 54.8165 148.143 54.8165 147.129C54.8165 146.115 55.0083 145.227 55.3918 144.464C55.7796 143.701 56.325 143.109 57.0281 142.687C57.7313 142.265 58.5622 142.054 59.521 142.054C60.4799 142.054 61.3108 142.265 62.0139 142.687C62.7171 143.109 63.2604 143.701 63.6439 144.464C64.0317 145.227 64.2256 146.115 64.2256 147.129C64.2256 148.143 64.0317 149.03 63.6439 149.788C63.2604 150.547 62.7171 151.137 62.0139 151.559C61.3108 151.981 60.4799 152.192 59.521 152.192ZM59.5338 150.338C60.0537 150.338 60.4884 150.195 60.8378 149.91C61.1872 149.62 61.4472 149.232 61.6176 148.746C61.7924 148.261 61.8797 147.719 61.8797 147.123C61.8797 146.522 61.7924 145.979 61.6176 145.493C61.4472 145.003 61.1872 144.613 60.8378 144.323C60.4884 144.033 60.0537 143.888 59.5338 143.888C59.0012 143.888 58.558 144.033 58.2043 144.323C57.8549 144.613 57.5928 145.003 57.4181 145.493C57.2476 145.979 57.1624 146.522 57.1624 147.123C57.1624 147.719 57.2476 148.261 57.4181 148.746C57.5928 149.232 57.8549 149.62 58.2043 149.91C58.558 150.195 59.0012 150.338 59.5338 150.338ZM70.8322 152.192C69.8521 152.192 69.0105 151.977 68.3074 151.546C67.6085 151.116 67.0694 150.521 66.6902 149.763C66.3152 149 66.1277 148.122 66.1277 147.129C66.1277 146.132 66.3194 145.252 66.703 144.489C67.0865 143.722 67.6277 143.126 68.3265 142.7C69.0297 142.269 69.8606 142.054 70.8194 142.054C71.6163 142.054 72.3216 142.201 72.9352 142.495C73.5531 142.785 74.0453 143.196 74.4118 143.729C74.7782 144.257 74.987 144.875 75.0382 145.582H72.8265C72.737 145.109 72.524 144.715 72.1873 144.4C71.8549 144.08 71.4096 143.92 70.8514 143.92C70.3784 143.92 69.9629 144.048 69.6049 144.304C69.247 144.555 68.9679 144.918 68.7676 145.391C68.5716 145.864 68.4736 146.43 68.4736 147.091C68.4736 147.76 68.5716 148.335 68.7676 148.817C68.9636 149.294 69.2385 149.663 69.5922 149.923C69.9501 150.178 70.3699 150.306 70.8514 150.306C71.1923 150.306 71.497 150.242 71.7655 150.114C72.0382 149.982 72.2662 149.793 72.4494 149.545C72.6326 149.298 72.7584 148.998 72.8265 148.644H75.0382C74.9828 149.339 74.7782 149.955 74.4245 150.491C74.0709 151.024 73.5893 151.442 72.9799 151.744C72.3706 152.043 71.6547 152.192 70.8322 152.192ZM77.2982 152V142.182H79.6121V152H77.2982ZM78.4616 140.788C78.0951 140.788 77.7798 140.667 77.5155 140.424C77.2513 140.177 77.1192 139.881 77.1192 139.536C77.1192 139.186 77.2513 138.89 77.5155 138.647C77.7798 138.4 78.0951 138.276 78.4616 138.276C78.8323 138.276 79.1477 138.4 79.4076 138.647C79.6718 138.89 79.8039 139.186 79.8039 139.536C79.8039 139.881 79.6718 140.177 79.4076 140.424C79.1477 140.667 78.8323 140.788 78.4616 140.788ZM85.1769 152.198C84.5547 152.198 83.9943 152.087 83.4958 151.866C83.0014 151.64 82.6094 151.308 82.3196 150.869C82.0341 150.43 81.8913 149.888 81.8913 149.245C81.8913 148.691 81.9936 148.233 82.1982 147.871C82.4027 147.509 82.6818 147.219 83.0355 147.001C83.3892 146.784 83.7877 146.62 84.2308 146.509C84.6783 146.394 85.1406 146.311 85.6179 146.26C86.1932 146.2 86.6598 146.147 87.0178 146.1C87.3757 146.049 87.6357 145.972 87.7976 145.87C87.9638 145.763 88.0469 145.599 88.0469 145.378V145.339C88.0469 144.858 87.9041 144.485 87.6186 144.221C87.3331 143.957 86.9219 143.825 86.385 143.825C85.8182 143.825 85.3686 143.948 85.0362 144.195C84.7081 144.442 84.4865 144.734 84.3715 145.071L82.211 144.764C82.3814 144.168 82.6627 143.669 83.0547 143.268C83.4467 142.864 83.9261 142.561 84.4929 142.361C85.0597 142.156 85.6861 142.054 86.3722 142.054C86.8452 142.054 87.3161 142.109 87.7848 142.22C88.2536 142.331 88.6818 142.514 89.0696 142.77C89.4574 143.021 89.7685 143.364 90.0029 143.799C90.2415 144.234 90.3608 144.777 90.3608 145.429V152H88.1364V150.651H88.0597C87.919 150.924 87.7209 151.18 87.4652 151.418C87.2138 151.653 86.8963 151.842 86.5128 151.987C86.1335 152.128 85.6882 152.198 85.1769 152.198ZM85.7777 150.498C86.2422 150.498 86.6449 150.406 86.9858 150.223C87.3267 150.036 87.5888 149.788 87.772 149.482C87.9595 149.175 88.0533 148.84 88.0533 148.478V147.321C87.9808 147.381 87.8573 147.436 87.6825 147.487C87.5121 147.538 87.3203 147.583 87.1073 147.621C86.8942 147.66 86.6833 147.694 86.4744 147.724C86.2656 147.754 86.0845 147.779 85.9311 147.8C85.586 147.847 85.277 147.924 85.0043 148.031C84.7315 148.137 84.5163 148.286 84.3587 148.478C84.201 148.665 84.1222 148.908 84.1222 149.207C84.1222 149.633 84.2777 149.955 84.5888 150.172C84.8999 150.389 85.2962 150.498 85.7777 150.498ZM95.3614 138.909V152H93.0475V138.909H95.3614ZM103.028 138.909H105.93L109.816 148.395H109.97L113.856 138.909H116.758V152H114.483V143.006H114.361L110.743 151.962H109.043L105.425 142.987H105.304V152H103.028V138.909ZM123.945 152.192C122.96 152.192 122.11 151.987 121.394 151.578C120.683 151.165 120.135 150.581 119.752 149.827C119.368 149.068 119.176 148.175 119.176 147.148C119.176 146.138 119.368 145.252 119.752 144.489C120.139 143.722 120.681 143.126 121.375 142.7C122.07 142.269 122.886 142.054 123.823 142.054C124.428 142.054 124.999 142.152 125.536 142.348C126.078 142.54 126.555 142.838 126.968 143.243C127.386 143.648 127.714 144.163 127.953 144.79C128.191 145.412 128.311 146.153 128.311 147.014V147.724H120.263V146.164H126.093C126.088 145.721 125.992 145.327 125.805 144.982C125.617 144.632 125.355 144.357 125.019 144.157C124.686 143.957 124.298 143.857 123.855 143.857C123.382 143.857 122.967 143.972 122.609 144.202C122.251 144.428 121.972 144.726 121.772 145.097C121.575 145.463 121.475 145.866 121.471 146.305V147.666C121.471 148.237 121.575 148.727 121.784 149.136C121.993 149.541 122.285 149.852 122.66 150.07C123.035 150.283 123.474 150.389 123.977 150.389C124.313 150.389 124.618 150.342 124.891 150.249C125.164 150.151 125.4 150.008 125.6 149.82C125.801 149.633 125.952 149.401 126.054 149.124L128.215 149.366C128.078 149.937 127.818 150.436 127.435 150.862C127.056 151.284 126.57 151.612 125.977 151.847C125.385 152.077 124.708 152.192 123.945 152.192ZM134.272 152.173C133.5 152.173 132.81 151.974 132.201 151.578C131.591 151.182 131.11 150.607 130.756 149.852C130.402 149.098 130.225 148.182 130.225 147.104C130.225 146.013 130.404 145.092 130.762 144.342C131.125 143.588 131.613 143.019 132.226 142.636C132.84 142.248 133.524 142.054 134.278 142.054C134.853 142.054 135.326 142.152 135.697 142.348C136.068 142.54 136.362 142.772 136.579 143.045C136.796 143.313 136.965 143.567 137.084 143.805H137.18V138.909H139.5V152H137.225V150.453H137.084C136.965 150.692 136.792 150.945 136.566 151.214C136.34 151.478 136.042 151.704 135.671 151.891C135.301 152.079 134.834 152.173 134.272 152.173ZM134.917 150.274C135.407 150.274 135.825 150.142 136.17 149.878C136.515 149.609 136.777 149.237 136.956 148.759C137.135 148.282 137.225 147.726 137.225 147.091C137.225 146.456 137.135 145.904 136.956 145.435C136.782 144.967 136.522 144.602 136.176 144.342C135.836 144.082 135.416 143.952 134.917 143.952C134.402 143.952 133.971 144.087 133.626 144.355C133.281 144.624 133.021 144.994 132.846 145.467C132.671 145.94 132.584 146.482 132.584 147.091C132.584 147.705 132.671 148.252 132.846 148.734C133.025 149.211 133.287 149.588 133.632 149.865C133.982 150.138 134.41 150.274 134.917 150.274ZM142.326 152V142.182H144.64V152H142.326ZM143.489 140.788C143.123 140.788 142.808 140.667 142.543 140.424C142.279 140.177 142.147 139.881 142.147 139.536C142.147 139.186 142.279 138.89 142.543 138.647C142.808 138.4 143.123 138.276 143.489 138.276C143.86 138.276 144.175 138.4 144.435 138.647C144.7 138.89 144.832 139.186 144.832 139.536C144.832 139.881 144.7 140.177 144.435 140.424C144.175 140.667 143.86 140.788 143.489 140.788ZM150.205 152.198C149.583 152.198 149.022 152.087 148.524 151.866C148.029 151.64 147.637 151.308 147.347 150.869C147.062 150.43 146.919 149.888 146.919 149.245C146.919 148.691 147.021 148.233 147.226 147.871C147.431 147.509 147.71 147.219 148.063 147.001C148.417 146.784 148.815 146.62 149.259 146.509C149.706 146.394 150.168 146.311 150.646 146.26C151.221 146.2 151.688 146.147 152.046 146.1C152.404 146.049 152.663 145.972 152.825 145.87C152.992 145.763 153.075 145.599 153.075 145.378V145.339C153.075 144.858 152.932 144.485 152.646 144.221C152.361 143.957 151.95 143.825 151.413 143.825C150.846 143.825 150.396 143.948 150.064 144.195C149.736 144.442 149.514 144.734 149.399 145.071L147.239 144.764C147.409 144.168 147.69 143.669 148.083 143.268C148.475 142.864 148.954 142.561 149.521 142.361C150.087 142.156 150.714 142.054 151.4 142.054C151.873 142.054 152.344 142.109 152.813 142.22C153.281 142.331 153.71 142.514 154.097 142.77C154.485 143.021 154.796 143.364 155.031 143.799C155.269 144.234 155.389 144.777 155.389 145.429V152H153.164V150.651H153.087C152.947 150.924 152.749 151.18 152.493 151.418C152.242 151.653 151.924 151.842 151.541 151.987C151.161 152.128 150.716 152.198 150.205 152.198ZM150.806 150.498C151.27 150.498 151.673 150.406 152.014 150.223C152.355 150.036 152.617 149.788 152.8 149.482C152.987 149.175 153.081 148.84 153.081 148.478V147.321C153.009 147.381 152.885 147.436 152.71 147.487C152.54 147.538 152.348 147.583 152.135 147.621C151.922 147.66 151.711 147.694 151.502 147.724C151.293 147.754 151.112 147.779 150.959 147.8C150.614 147.847 150.305 147.924 150.032 148.031C149.759 148.137 149.544 148.286 149.386 148.478C149.229 148.665 149.15 148.908 149.15 149.207C149.15 149.633 149.306 149.955 149.617 150.172C149.928 150.389 150.324 150.498 150.806 150.498ZM163.002 138.909H165.904L169.791 148.395H169.944L173.831 138.909H176.733V152H174.457V143.006H174.336L170.718 151.962H169.017L165.399 142.987H165.278V152H163.002V138.909ZM182.398 152.198C181.776 152.198 181.215 152.087 180.717 151.866C180.223 151.64 179.83 151.308 179.541 150.869C179.255 150.43 179.112 149.888 179.112 149.245C179.112 148.691 179.215 148.233 179.419 147.871C179.624 147.509 179.903 147.219 180.257 147.001C180.61 146.784 181.009 146.62 181.452 146.509C181.899 146.394 182.362 146.311 182.839 146.26C183.414 146.2 183.881 146.147 184.239 146.1C184.597 146.049 184.857 145.972 185.019 145.87C185.185 145.763 185.268 145.599 185.268 145.378V145.339C185.268 144.858 185.125 144.485 184.84 144.221C184.554 143.957 184.143 143.825 183.606 143.825C183.039 143.825 182.59 143.948 182.257 144.195C181.929 144.442 181.708 144.734 181.593 145.071L179.432 144.764C179.602 144.168 179.884 143.669 180.276 143.268C180.668 142.864 181.147 142.561 181.714 142.361C182.281 142.156 182.907 142.054 183.593 142.054C184.066 142.054 184.537 142.109 185.006 142.22C185.475 142.331 185.903 142.514 186.291 142.77C186.678 143.021 186.99 143.364 187.224 143.799C187.463 144.234 187.582 144.777 187.582 145.429V152H185.357V150.651H185.281C185.14 150.924 184.942 151.18 184.686 151.418C184.435 151.653 184.117 151.842 183.734 151.987C183.355 152.128 182.909 152.198 182.398 152.198ZM182.999 150.498C183.463 150.498 183.866 150.406 184.207 150.223C184.548 150.036 184.81 149.788 184.993 149.482C185.181 149.175 185.274 148.84 185.274 148.478V147.321C185.202 147.381 185.078 147.436 184.904 147.487C184.733 147.538 184.541 147.583 184.328 147.621C184.115 147.66 183.904 147.694 183.696 147.724C183.487 147.754 183.306 147.779 183.152 147.8C182.807 147.847 182.498 147.924 182.225 148.031C181.953 148.137 181.737 148.286 181.58 148.478C181.422 148.665 181.343 148.908 181.343 149.207C181.343 149.633 181.499 149.955 181.81 150.172C182.121 150.389 182.517 150.498 182.999 150.498ZM192.583 146.247V152H190.269V142.182H192.48V143.85H192.595C192.821 143.3 193.181 142.864 193.676 142.54C194.174 142.216 194.79 142.054 195.523 142.054C196.2 142.054 196.791 142.199 197.293 142.489C197.801 142.778 198.193 143.198 198.47 143.748C198.751 144.298 198.889 144.964 198.885 145.749V152H196.571V146.107C196.571 145.45 196.401 144.937 196.06 144.566C195.723 144.195 195.257 144.01 194.66 144.01C194.255 144.01 193.895 144.099 193.58 144.278C193.269 144.453 193.024 144.707 192.845 145.039C192.67 145.371 192.583 145.774 192.583 146.247ZM204.423 152.198C203.8 152.198 203.24 152.087 202.742 151.866C202.247 151.64 201.855 151.308 201.565 150.869C201.28 150.43 201.137 149.888 201.137 149.245C201.137 148.691 201.239 148.233 201.444 147.871C201.648 147.509 201.928 147.219 202.281 147.001C202.635 146.784 203.033 146.62 203.477 146.509C203.924 146.394 204.386 146.311 204.864 146.26C205.439 146.2 205.906 146.147 206.264 146.1C206.622 146.049 206.881 145.972 207.043 145.87C207.21 145.763 207.293 145.599 207.293 145.378V145.339C207.293 144.858 207.15 144.485 206.864 144.221C206.579 143.957 206.168 143.825 205.631 143.825C205.064 143.825 204.614 143.948 204.282 144.195C203.954 144.442 203.732 144.734 203.617 145.071L201.457 144.764C201.627 144.168 201.908 143.669 202.3 143.268C202.693 142.864 203.172 142.561 203.739 142.361C204.305 142.156 204.932 142.054 205.618 142.054C206.091 142.054 206.562 142.109 207.031 142.22C207.499 142.331 207.928 142.514 208.315 142.77C208.703 143.021 209.014 143.364 209.249 143.799C209.487 144.234 209.607 144.777 209.607 145.429V152H207.382V150.651H207.305C207.165 150.924 206.967 151.18 206.711 151.418C206.46 151.653 206.142 151.842 205.759 151.987C205.379 152.128 204.934 152.198 204.423 152.198ZM205.023 150.498C205.488 150.498 205.891 150.406 206.232 150.223C206.572 150.036 206.835 149.788 207.018 149.482C207.205 149.175 207.299 148.84 207.299 148.478V147.321C207.227 147.381 207.103 147.436 206.928 147.487C206.758 147.538 206.566 147.583 206.353 147.621C206.14 147.66 205.929 147.694 205.72 147.724C205.511 147.754 205.33 147.779 205.177 147.8C204.832 147.847 204.523 147.924 204.25 148.031C203.977 148.137 203.762 148.286 203.604 148.478C203.447 148.665 203.368 148.908 203.368 149.207C203.368 149.633 203.523 149.955 203.835 150.172C204.146 150.389 204.542 150.498 205.023 150.498ZM216.563 155.886C215.732 155.886 215.018 155.773 214.422 155.548C213.825 155.326 213.346 155.028 212.984 154.653C212.621 154.278 212.37 153.862 212.229 153.406L214.313 152.901C214.407 153.093 214.543 153.283 214.722 153.47C214.901 153.662 215.142 153.82 215.445 153.943C215.751 154.071 216.137 154.135 216.602 154.135C217.258 154.135 217.801 153.975 218.232 153.656C218.662 153.34 218.877 152.82 218.877 152.096V150.236H218.762C218.643 150.474 218.468 150.719 218.238 150.971C218.012 151.222 217.712 151.433 217.337 151.604C216.966 151.774 216.499 151.859 215.937 151.859C215.182 151.859 214.499 151.683 213.885 151.329C213.276 150.971 212.79 150.438 212.428 149.731C212.07 149.019 211.891 148.129 211.891 147.059C211.891 145.981 212.07 145.071 212.428 144.33C212.79 143.584 213.278 143.019 213.891 142.636C214.505 142.248 215.189 142.054 215.943 142.054C216.518 142.054 216.991 142.152 217.362 142.348C217.737 142.54 218.035 142.772 218.257 143.045C218.479 143.313 218.647 143.567 218.762 143.805H218.89V142.182H221.172V152.16C221.172 152.999 220.972 153.694 220.571 154.244C220.17 154.793 219.623 155.205 218.928 155.477C218.234 155.75 217.445 155.886 216.563 155.886ZM216.582 150.044C217.072 150.044 217.49 149.925 217.835 149.686C218.18 149.447 218.442 149.104 218.621 148.657C218.8 148.21 218.89 147.673 218.89 147.046C218.89 146.428 218.8 145.887 218.621 145.423C218.447 144.958 218.187 144.598 217.842 144.342C217.501 144.082 217.081 143.952 216.582 143.952C216.067 143.952 215.636 144.087 215.291 144.355C214.946 144.624 214.686 144.992 214.511 145.461C214.337 145.925 214.249 146.454 214.249 147.046C214.249 147.647 214.337 148.173 214.511 148.625C214.69 149.072 214.952 149.422 215.298 149.673C215.647 149.92 216.075 150.044 216.582 150.044ZM228.25 152.192C227.266 152.192 226.415 151.987 225.699 151.578C224.988 151.165 224.44 150.581 224.057 149.827C223.673 149.068 223.481 148.175 223.481 147.148C223.481 146.138 223.673 145.252 224.057 144.489C224.444 143.722 224.986 143.126 225.68 142.7C226.375 142.269 227.191 142.054 228.128 142.054C228.734 142.054 229.305 142.152 229.842 142.348C230.383 142.54 230.86 142.838 231.273 143.243C231.691 143.648 232.019 144.163 232.258 144.79C232.496 145.412 232.616 146.153 232.616 147.014V147.724H224.568V146.164H230.398C230.393 145.721 230.297 145.327 230.11 144.982C229.922 144.632 229.66 144.357 229.324 144.157C228.991 143.957 228.604 143.857 228.16 143.857C227.687 143.857 227.272 143.972 226.914 144.202C226.556 144.428 226.277 144.726 226.077 145.097C225.881 145.463 225.78 145.866 225.776 146.305V147.666C225.776 148.237 225.881 148.727 226.089 149.136C226.298 149.541 226.59 149.852 226.965 150.07C227.34 150.283 227.779 150.389 228.282 150.389C228.618 150.389 228.923 150.342 229.196 150.249C229.469 150.151 229.705 150.008 229.905 149.82C230.106 149.633 230.257 149.401 230.359 149.124L232.52 149.366C232.383 149.937 232.123 150.436 231.74 150.862C231.361 151.284 230.875 151.612 230.283 151.847C229.69 152.077 229.013 152.192 228.25 152.192ZM234.933 152V142.182H237.177V143.818H237.279C237.458 143.251 237.765 142.815 238.2 142.508C238.638 142.197 239.139 142.041 239.702 142.041C239.83 142.041 239.972 142.048 240.13 142.06C240.292 142.069 240.426 142.084 240.533 142.105V144.234C240.435 144.2 240.279 144.17 240.066 144.144C239.857 144.114 239.655 144.099 239.459 144.099C239.037 144.099 238.658 144.191 238.321 144.374C237.989 144.553 237.727 144.803 237.535 145.122C237.343 145.442 237.247 145.81 237.247 146.228V152H234.933Z" fill="#0A2134"/>
<path d="M44.321 188V177.091H45.642V186.828H50.7131V188H44.321ZM55.9119 188.17C55.1733 188.17 54.5252 187.995 53.9677 187.643C53.4137 187.292 52.9805 186.8 52.668 186.168C52.359 185.536 52.2045 184.797 52.2045 183.952C52.2045 183.099 52.359 182.355 52.668 181.72C52.9805 181.084 53.4137 180.591 53.9677 180.239C54.5252 179.887 55.1733 179.712 55.9119 179.712C56.6506 179.712 57.2969 179.887 57.8509 180.239C58.4084 180.591 58.8416 181.084 59.1506 181.72C59.4631 182.355 59.6193 183.099 59.6193 183.952C59.6193 184.797 59.4631 185.536 59.1506 186.168C58.8416 186.8 58.4084 187.292 57.8509 187.643C57.2969 187.995 56.6506 188.17 55.9119 188.17ZM55.9119 187.041C56.473 187.041 56.9347 186.897 57.2969 186.61C57.6591 186.322 57.9272 185.944 58.1012 185.475C58.2752 185.006 58.3622 184.499 58.3622 183.952C58.3622 183.405 58.2752 182.895 58.1012 182.423C57.9272 181.951 57.6591 181.569 57.2969 181.278C56.9347 180.987 56.473 180.841 55.9119 180.841C55.3509 180.841 54.8892 180.987 54.527 181.278C54.1648 181.569 53.8967 181.951 53.7227 182.423C53.5487 182.895 53.4616 183.405 53.4616 183.952C53.4616 184.499 53.5487 185.006 53.7227 185.475C53.8967 185.944 54.1648 186.322 54.527 186.61C54.8892 186.897 55.3509 187.041 55.9119 187.041ZM61.5383 188V179.818H62.7528V181.054H62.838C62.9871 180.649 63.257 180.321 63.6476 180.069C64.0383 179.816 64.4786 179.69 64.9687 179.69C65.061 179.69 65.1764 179.692 65.3149 179.696C65.4534 179.699 65.5582 179.705 65.6292 179.712V180.99C65.5866 180.979 65.4889 180.963 65.3362 180.942C65.1871 180.917 65.029 180.905 64.8621 180.905C64.4644 180.905 64.1093 180.988 63.7968 181.155C63.4878 181.319 63.2428 181.546 63.0617 181.837C62.8841 182.125 62.7954 182.453 62.7954 182.822V188H61.5383ZM70.3007 188.17C69.5123 188.17 68.8323 187.996 68.2606 187.648C67.6924 187.297 67.2538 186.807 66.9449 186.178C66.6395 185.546 66.4868 184.811 66.4868 183.973C66.4868 183.135 66.6395 182.396 66.9449 181.757C67.2538 181.114 67.6835 180.614 68.2339 180.255C68.7879 179.893 69.4342 179.712 70.1729 179.712C70.599 179.712 71.0198 179.783 71.4353 179.925C71.8508 180.067 72.229 180.298 72.5699 180.617C72.9108 180.933 73.1824 181.352 73.3849 181.874C73.5873 182.396 73.6885 183.039 73.6885 183.803V184.335H67.3817V183.249H72.4101C72.4101 182.787 72.3177 182.375 72.1331 182.013C71.952 181.651 71.6927 181.365 71.3554 181.155C71.0216 180.946 70.6274 180.841 70.1729 180.841C69.6721 180.841 69.2389 180.965 68.8731 181.214C68.5109 181.459 68.2322 181.778 68.0368 182.173C67.8415 182.567 67.7439 182.989 67.7439 183.44V184.165C67.7439 184.783 67.8504 185.306 68.0635 185.736C68.2801 186.162 68.5802 186.487 68.9637 186.711C69.3472 186.931 69.7929 187.041 70.3007 187.041C70.6309 187.041 70.9292 186.995 71.1956 186.903C71.4655 186.807 71.6981 186.665 71.8934 186.477C72.0887 186.285 72.2396 186.047 72.3461 185.763L73.5606 186.104C73.4328 186.516 73.218 186.878 72.9161 187.19C72.6143 187.499 72.2414 187.741 71.7975 187.915C71.3536 188.085 70.8547 188.17 70.3007 188.17ZM75.6008 188V179.818H76.8153V181.097H76.9218C77.0922 180.66 77.3675 180.321 77.7474 180.079C78.1274 179.834 78.5837 179.712 79.1164 179.712C79.6562 179.712 80.1054 179.834 80.464 180.079C80.8263 180.321 81.1086 180.66 81.311 181.097H81.3962C81.6057 180.674 81.92 180.338 82.339 180.09C82.7581 179.838 83.2606 179.712 83.8465 179.712C84.578 179.712 85.1764 179.941 85.6416 180.399C86.1068 180.853 86.3394 181.562 86.3394 182.524V188H85.0823V182.524C85.0823 181.92 84.9172 181.489 84.5869 181.23C84.2567 180.971 83.8678 180.841 83.4204 180.841C82.8451 180.841 82.3994 181.015 82.0834 181.363C81.7673 181.707 81.6093 182.144 81.6093 182.673V188H80.3309V182.396C80.3309 181.931 80.18 181.556 79.8781 181.272C79.5763 180.985 79.1874 180.841 78.7116 180.841C78.3849 180.841 78.0795 180.928 77.7954 181.102C77.5148 181.276 77.2876 181.517 77.1135 181.826C76.9431 182.132 76.8579 182.485 76.8579 182.886V188H75.6008ZM92.8566 188V179.818H94.1137V188H92.8566ZM93.4958 178.455C93.2508 178.455 93.0395 178.371 92.8619 178.204C92.6879 178.037 92.6009 177.837 92.6009 177.602C92.6009 177.368 92.6879 177.167 92.8619 177C93.0395 176.833 93.2508 176.75 93.4958 176.75C93.7409 176.75 93.9504 176.833 94.1244 177C94.3019 177.167 94.3907 177.368 94.3907 177.602C94.3907 177.837 94.3019 178.037 94.1244 178.204C93.9504 178.371 93.7409 178.455 93.4958 178.455ZM96.4162 191.068V179.818H97.6307V181.118H97.7798C97.8722 180.976 98 180.795 98.1634 180.575C98.3303 180.351 98.5682 180.152 98.8771 179.978C99.1896 179.8 99.6122 179.712 100.145 179.712C100.834 179.712 101.441 179.884 101.967 180.228C102.492 180.573 102.902 181.061 103.197 181.693C103.492 182.325 103.639 183.071 103.639 183.93C103.639 184.797 103.492 185.548 103.197 186.184C102.902 186.816 102.494 187.306 101.972 187.654C101.45 187.998 100.848 188.17 100.166 188.17C99.6406 188.17 99.2198 188.083 98.9038 187.909C98.5877 187.732 98.3445 187.531 98.174 187.308C98.0036 187.08 97.8722 186.892 97.7798 186.743H97.6733V191.068H96.4162ZM97.652 183.909C97.652 184.527 97.7425 185.072 97.9237 185.544C98.1048 186.013 98.3693 186.381 98.7173 186.647C99.0653 186.91 99.4915 187.041 99.9957 187.041C100.521 187.041 100.96 186.903 101.311 186.626C101.667 186.345 101.933 185.969 102.11 185.496C102.292 185.021 102.382 184.491 102.382 183.909C102.382 183.334 102.293 182.815 102.116 182.354C101.942 181.888 101.677 181.521 101.322 181.251C100.971 180.978 100.528 180.841 99.9957 180.841C99.4844 180.841 99.0547 180.971 98.7067 181.23C98.3587 181.485 98.0959 181.844 97.9183 182.306C97.7408 182.764 97.652 183.298 97.652 183.909ZM111.352 181.651L110.223 181.97C110.152 181.782 110.047 181.599 109.909 181.422C109.774 181.24 109.589 181.091 109.355 180.974C109.12 180.857 108.82 180.798 108.455 180.798C107.954 180.798 107.537 180.914 107.203 181.145C106.873 181.372 106.707 181.661 106.707 182.013C106.707 182.325 106.821 182.572 107.048 182.753C107.276 182.934 107.631 183.085 108.114 183.206L109.328 183.504C110.06 183.682 110.605 183.953 110.963 184.319C111.322 184.681 111.501 185.148 111.501 185.72C111.501 186.189 111.366 186.608 111.097 186.977C110.83 187.347 110.457 187.638 109.978 187.851C109.499 188.064 108.941 188.17 108.305 188.17C107.471 188.17 106.78 187.989 106.233 187.627C105.686 187.265 105.34 186.736 105.195 186.04L106.388 185.741C106.501 186.182 106.716 186.512 107.032 186.732C107.352 186.952 107.769 187.062 108.284 187.062C108.87 187.062 109.335 186.938 109.68 186.69C110.028 186.437 110.202 186.136 110.202 185.784C110.202 185.5 110.102 185.262 109.903 185.07C109.705 184.875 109.399 184.729 108.987 184.634L107.624 184.314C106.874 184.136 106.324 183.861 105.972 183.488C105.624 183.112 105.45 182.641 105.45 182.077C105.45 181.615 105.58 181.207 105.839 180.852C106.102 180.496 106.459 180.218 106.91 180.015C107.364 179.813 107.879 179.712 108.455 179.712C109.264 179.712 109.9 179.889 110.362 180.244C110.827 180.599 111.157 181.068 111.352 181.651ZM118.55 184.655V179.818H119.807V188H118.55V186.615H118.465C118.273 187.031 117.975 187.384 117.57 187.675C117.165 187.963 116.654 188.107 116.036 188.107C115.524 188.107 115.07 187.995 114.672 187.771C114.274 187.544 113.962 187.203 113.735 186.748C113.507 186.29 113.394 185.713 113.394 185.017V179.818H114.651V184.932C114.651 185.528 114.818 186.004 115.152 186.359C115.489 186.714 115.919 186.892 116.441 186.892C116.753 186.892 117.071 186.812 117.394 186.652C117.721 186.493 117.994 186.248 118.214 185.917C118.438 185.587 118.55 185.166 118.55 184.655ZM122.11 188V179.818H123.324V181.097H123.431C123.601 180.66 123.876 180.321 124.256 180.079C124.636 179.834 125.093 179.712 125.625 179.712C126.165 179.712 126.614 179.834 126.973 180.079C127.335 180.321 127.617 180.66 127.82 181.097H127.905C128.115 180.674 128.429 180.338 128.848 180.09C129.267 179.838 129.769 179.712 130.355 179.712C131.087 179.712 131.685 179.941 132.15 180.399C132.616 180.853 132.848 181.562 132.848 182.524V188H131.591V182.524C131.591 181.92 131.426 181.489 131.096 181.23C130.765 180.971 130.377 180.841 129.929 180.841C129.354 180.841 128.908 181.015 128.592 181.363C128.276 181.707 128.118 182.144 128.118 182.673V188H126.84V182.396C126.84 181.931 126.689 181.556 126.387 181.272C126.085 180.985 125.696 180.841 125.22 180.841C124.894 180.841 124.588 180.928 124.304 181.102C124.024 181.276 123.796 181.517 123.622 181.826C123.452 182.132 123.367 182.485 123.367 182.886V188H122.11ZM142.455 188.17C141.773 188.17 141.171 187.998 140.649 187.654C140.127 187.306 139.719 186.816 139.424 186.184C139.129 185.548 138.982 184.797 138.982 183.93C138.982 183.071 139.129 182.325 139.424 181.693C139.719 181.061 140.129 180.573 140.654 180.228C141.18 179.884 141.787 179.712 142.476 179.712C143.009 179.712 143.43 179.8 143.739 179.978C144.051 180.152 144.289 180.351 144.452 180.575C144.619 180.795 144.749 180.976 144.841 181.118H144.948V177.091H146.205V188H144.99V186.743H144.841C144.749 186.892 144.618 187.08 144.447 187.308C144.277 187.531 144.033 187.732 143.717 187.909C143.401 188.083 142.98 188.17 142.455 188.17ZM142.625 187.041C143.13 187.041 143.556 186.91 143.904 186.647C144.252 186.381 144.516 186.013 144.697 185.544C144.879 185.072 144.969 184.527 144.969 183.909C144.969 183.298 144.88 182.764 144.703 182.306C144.525 181.844 144.262 181.485 143.914 181.23C143.566 180.971 143.137 180.841 142.625 180.841C142.093 180.841 141.649 180.978 141.294 181.251C140.942 181.521 140.678 181.888 140.5 182.354C140.326 182.815 140.239 183.334 140.239 183.909C140.239 184.491 140.328 185.021 140.505 185.496C140.686 185.969 140.953 186.345 141.304 186.626C141.659 186.903 142.1 187.041 142.625 187.041ZM152.006 188.17C151.267 188.17 150.619 187.995 150.061 187.643C149.507 187.292 149.074 186.8 148.762 186.168C148.453 185.536 148.298 184.797 148.298 183.952C148.298 183.099 148.453 182.355 148.762 181.72C149.074 181.084 149.507 180.591 150.061 180.239C150.619 179.887 151.267 179.712 152.006 179.712C152.744 179.712 153.391 179.887 153.945 180.239C154.502 180.591 154.935 181.084 155.244 181.72C155.557 182.355 155.713 183.099 155.713 183.952C155.713 184.797 155.557 185.536 155.244 186.168C154.935 186.8 154.502 187.292 153.945 187.643C153.391 187.995 152.744 188.17 152.006 188.17ZM152.006 187.041C152.567 187.041 153.028 186.897 153.391 186.61C153.753 186.322 154.021 185.944 154.195 185.475C154.369 185.006 154.456 184.499 154.456 183.952C154.456 183.405 154.369 182.895 154.195 182.423C154.021 181.951 153.753 181.569 153.391 181.278C153.028 180.987 152.567 180.841 152.006 180.841C151.445 180.841 150.983 180.987 150.621 181.278C150.259 181.569 149.99 181.951 149.816 182.423C149.642 182.895 149.555 183.405 149.555 183.952C149.555 184.499 149.642 185.006 149.816 185.475C149.99 185.944 150.259 186.322 150.621 186.61C150.983 186.897 151.445 187.041 152.006 187.041ZM158.889 177.091V188H157.632V177.091H158.889ZM164.515 188.17C163.777 188.17 163.129 187.995 162.571 187.643C162.017 187.292 161.584 186.8 161.271 186.168C160.963 185.536 160.808 184.797 160.808 183.952C160.808 183.099 160.963 182.355 161.271 181.72C161.584 181.084 162.017 180.591 162.571 180.239C163.129 179.887 163.777 179.712 164.515 179.712C165.254 179.712 165.9 179.887 166.454 180.239C167.012 180.591 167.445 181.084 167.754 181.72C168.067 182.355 168.223 183.099 168.223 183.952C168.223 184.797 168.067 185.536 167.754 186.168C167.445 186.8 167.012 187.292 166.454 187.643C165.9 187.995 165.254 188.17 164.515 188.17ZM164.515 187.041C165.077 187.041 165.538 186.897 165.9 186.61C166.263 186.322 166.531 185.944 166.705 185.475C166.879 185.006 166.966 184.499 166.966 183.952C166.966 183.405 166.879 182.895 166.705 182.423C166.531 181.951 166.263 181.569 165.9 181.278C165.538 180.987 165.077 180.841 164.515 180.841C163.954 180.841 163.493 180.987 163.131 181.278C162.768 181.569 162.5 181.951 162.326 182.423C162.152 182.895 162.065 183.405 162.065 183.952C162.065 184.499 162.152 185.006 162.326 185.475C162.5 185.944 162.768 186.322 163.131 186.61C163.493 186.897 163.954 187.041 164.515 187.041ZM170.142 188V179.818H171.356V181.054H171.441C171.591 180.649 171.861 180.321 172.251 180.069C172.642 179.816 173.082 179.69 173.572 179.69C173.665 179.69 173.78 179.692 173.918 179.696C174.057 179.699 174.162 179.705 174.233 179.712V180.99C174.19 180.979 174.092 180.963 173.94 180.942C173.791 180.917 173.633 180.905 173.466 180.905C173.068 180.905 172.713 180.988 172.4 181.155C172.091 181.319 171.846 181.546 171.665 181.837C171.488 182.125 171.399 182.453 171.399 182.822V188H170.142ZM185.737 181.651L184.608 181.97C184.537 181.782 184.432 181.599 184.294 181.422C184.159 181.24 183.974 181.091 183.74 180.974C183.505 180.857 183.205 180.798 182.839 180.798C182.339 180.798 181.921 180.914 181.588 181.145C181.257 181.372 181.092 181.661 181.092 182.013C181.092 182.325 181.206 182.572 181.433 182.753C181.66 182.934 182.015 183.085 182.498 183.206L183.713 183.504C184.444 183.682 184.99 183.953 185.348 184.319C185.707 184.681 185.886 185.148 185.886 185.72C185.886 186.189 185.751 186.608 185.481 186.977C185.215 187.347 184.842 187.638 184.363 187.851C183.883 188.064 183.326 188.17 182.69 188.17C181.856 188.17 181.165 187.989 180.618 187.627C180.071 187.265 179.725 186.736 179.579 186.04L180.773 185.741C180.886 186.182 181.101 186.512 181.417 186.732C181.737 186.952 182.154 187.062 182.669 187.062C183.255 187.062 183.72 186.938 184.064 186.69C184.412 186.437 184.586 186.136 184.586 185.784C184.586 185.5 184.487 185.262 184.288 185.07C184.089 184.875 183.784 184.729 183.372 184.634L182.008 184.314C181.259 184.136 180.709 183.861 180.357 183.488C180.009 183.112 179.835 182.641 179.835 182.077C179.835 181.615 179.965 181.207 180.224 180.852C180.487 180.496 180.844 180.218 181.295 180.015C181.749 179.813 182.264 179.712 182.839 179.712C183.649 179.712 184.285 179.889 184.746 180.244C185.211 180.599 185.542 181.068 185.737 181.651ZM187.778 188V179.818H189.036V188H187.778ZM188.418 178.455C188.173 178.455 187.961 178.371 187.784 178.204C187.61 178.037 187.523 177.837 187.523 177.602C187.523 177.368 187.61 177.167 187.784 177C187.961 176.833 188.173 176.75 188.418 176.75C188.663 176.75 188.872 176.833 189.046 177C189.224 177.167 189.313 177.368 189.313 177.602C189.313 177.837 189.224 178.037 189.046 178.204C188.872 178.371 188.663 178.455 188.418 178.455ZM194.896 179.818V180.884H190.656V179.818H194.896ZM191.892 177.858H193.149V185.656C193.149 186.011 193.201 186.278 193.304 186.455C193.41 186.629 193.545 186.746 193.708 186.807C193.875 186.864 194.051 186.892 194.236 186.892C194.374 186.892 194.488 186.885 194.577 186.871C194.665 186.853 194.737 186.839 194.79 186.828L195.045 187.957C194.96 187.989 194.841 188.021 194.689 188.053C194.536 188.089 194.342 188.107 194.108 188.107C193.753 188.107 193.405 188.03 193.064 187.877C192.727 187.725 192.446 187.492 192.222 187.18C192.002 186.867 191.892 186.473 191.892 185.997V177.858ZM203.414 188.192C202.895 188.192 202.425 188.094 202.002 187.899C201.58 187.7 201.244 187.414 200.995 187.041C200.747 186.665 200.623 186.21 200.623 185.678C200.623 185.209 200.715 184.829 200.9 184.538C201.084 184.243 201.331 184.012 201.64 183.845C201.949 183.678 202.29 183.554 202.663 183.472C203.039 183.387 203.417 183.32 203.797 183.27C204.294 183.206 204.697 183.158 205.006 183.126C205.319 183.091 205.546 183.032 205.688 182.95C205.834 182.869 205.907 182.727 205.907 182.524V182.482C205.907 181.956 205.763 181.548 205.475 181.256C205.191 180.965 204.76 180.82 204.181 180.82C203.581 180.82 203.11 180.951 202.769 181.214C202.428 181.477 202.189 181.757 202.05 182.055L200.857 181.629C201.07 181.132 201.354 180.745 201.709 180.468C202.068 180.187 202.458 179.992 202.881 179.882C203.307 179.768 203.726 179.712 204.138 179.712C204.401 179.712 204.703 179.744 205.044 179.808C205.388 179.868 205.72 179.994 206.04 180.186C206.363 180.377 206.631 180.667 206.844 181.054C207.057 181.441 207.164 181.96 207.164 182.609V188H205.907V186.892H205.843C205.757 187.07 205.615 187.26 205.417 187.462C205.218 187.664 204.953 187.837 204.623 187.979C204.293 188.121 203.89 188.192 203.414 188.192ZM203.605 187.062C204.103 187.062 204.522 186.965 204.863 186.77C205.207 186.574 205.466 186.322 205.64 186.013C205.818 185.704 205.907 185.379 205.907 185.038V183.888C205.853 183.952 205.736 184.01 205.555 184.064C205.377 184.113 205.172 184.158 204.937 184.197C204.706 184.232 204.481 184.264 204.261 184.293C204.044 184.317 203.868 184.339 203.733 184.357C203.407 184.399 203.101 184.468 202.817 184.564C202.537 184.657 202.309 184.797 202.135 184.985C201.965 185.17 201.88 185.422 201.88 185.741C201.88 186.178 202.041 186.509 202.364 186.732C202.691 186.952 203.105 187.062 203.605 187.062ZM209.458 188V179.818H210.673V181.097H210.779C210.95 180.66 211.225 180.321 211.605 180.079C211.985 179.834 212.441 179.712 212.974 179.712C213.514 179.712 213.963 179.834 214.321 180.079C214.684 180.321 214.966 180.66 215.168 181.097H215.254C215.463 180.674 215.777 180.338 216.196 180.09C216.616 179.838 217.118 179.712 217.704 179.712C218.435 179.712 219.034 179.941 219.499 180.399C219.964 180.853 220.197 181.562 220.197 182.524V188H218.94V182.524C218.94 181.92 218.775 181.489 218.444 181.23C218.114 180.971 217.725 180.841 217.278 180.841C216.703 180.841 216.257 181.015 215.941 181.363C215.625 181.707 215.467 182.144 215.467 182.673V188H214.188V182.396C214.188 181.931 214.037 181.556 213.736 181.272C213.434 180.985 213.045 180.841 212.569 180.841C212.242 180.841 211.937 180.928 211.653 181.102C211.372 181.276 211.145 181.517 210.971 181.826C210.801 182.132 210.715 182.485 210.715 182.886V188H209.458ZM225.926 188.17C225.137 188.17 224.457 187.996 223.886 187.648C223.317 187.297 222.879 186.807 222.57 186.178C222.264 185.546 222.112 184.811 222.112 183.973C222.112 183.135 222.264 182.396 222.57 181.757C222.879 181.114 223.309 180.614 223.859 180.255C224.413 179.893 225.059 179.712 225.798 179.712C226.224 179.712 226.645 179.783 227.06 179.925C227.476 180.067 227.854 180.298 228.195 180.617C228.536 180.933 228.807 181.352 229.01 181.874C229.212 182.396 229.313 183.039 229.313 183.803V184.335H223.007V183.249H228.035C228.035 182.787 227.943 182.375 227.758 182.013C227.577 181.651 227.318 181.365 226.98 181.155C226.647 180.946 226.252 180.841 225.798 180.841C225.297 180.841 224.864 180.965 224.498 181.214C224.136 181.459 223.857 181.778 223.662 182.173C223.467 182.567 223.369 182.989 223.369 183.44V184.165C223.369 184.783 223.475 185.306 223.688 185.736C223.905 186.162 224.205 186.487 224.589 186.711C224.972 186.931 225.418 187.041 225.926 187.041C226.256 187.041 226.554 186.995 226.821 186.903C227.09 186.807 227.323 186.665 227.518 186.477C227.714 186.285 227.865 186.047 227.971 185.763L229.186 186.104C229.058 186.516 228.843 186.878 228.541 187.19C228.239 187.499 227.866 187.741 227.422 187.915C226.979 188.085 226.48 188.17 225.926 188.17ZM234.784 179.818V180.884H230.544V179.818H234.784ZM231.78 177.858H233.037V185.656C233.037 186.011 233.088 186.278 233.191 186.455C233.298 186.629 233.433 186.746 233.596 186.807C233.763 186.864 233.939 186.892 234.123 186.892C234.262 186.892 234.376 186.885 234.464 186.871C234.553 186.853 234.624 186.839 234.677 186.828L234.933 187.957C234.848 187.989 234.729 188.021 234.576 188.053C234.424 188.089 234.23 188.107 233.996 188.107C233.641 188.107 233.293 188.03 232.952 187.877C232.614 187.725 232.334 187.492 232.11 187.18C231.89 186.867 231.78 186.473 231.78 185.997V177.858ZM47.4744 210.17C46.7074 210.17 46.0469 209.989 45.4929 209.627C44.9389 209.265 44.5128 208.766 44.2145 208.13C43.9162 207.495 43.767 206.768 43.767 205.952C43.767 205.121 43.9197 204.387 44.2251 203.752C44.5341 203.113 44.9638 202.614 45.5142 202.255C46.0682 201.893 46.7145 201.712 47.4531 201.712C48.0284 201.712 48.5469 201.818 49.0085 202.031C49.4702 202.244 49.8484 202.543 50.1431 202.926C50.4379 203.31 50.6207 203.757 50.6918 204.268H49.4347C49.3388 203.896 49.1257 203.565 48.7955 203.278C48.4688 202.987 48.0284 202.841 47.4744 202.841C46.9844 202.841 46.5547 202.969 46.1854 203.224C45.8196 203.477 45.5337 203.833 45.3278 204.295C45.1254 204.753 45.0241 205.291 45.0241 205.909C45.0241 206.541 45.1236 207.092 45.3224 207.56C45.5249 208.029 45.8089 208.393 46.1747 208.652C46.544 208.912 46.9773 209.041 47.4744 209.041C47.8011 209.041 48.0977 208.984 48.364 208.871C48.6303 208.757 48.8558 208.594 49.0405 208.381C49.2251 208.168 49.3565 207.912 49.4347 207.614H50.6918C50.6207 208.097 50.445 208.532 50.1644 208.919C49.8874 209.302 49.5199 209.608 49.0618 209.835C48.6072 210.059 48.0781 210.17 47.4744 210.17ZM55.8533 210.17C55.1147 210.17 54.4666 209.995 53.9091 209.643C53.3551 209.292 52.9219 208.8 52.6094 208.168C52.3004 207.536 52.146 206.797 52.146 205.952C52.146 205.099 52.3004 204.355 52.6094 203.72C52.9219 203.084 53.3551 202.591 53.9091 202.239C54.4666 201.887 55.1147 201.712 55.8533 201.712C56.592 201.712 57.2383 201.887 57.7923 202.239C58.3498 202.591 58.783 203.084 59.092 203.72C59.4045 204.355 59.5607 205.099 59.5607 205.952C59.5607 206.797 59.4045 207.536 59.092 208.168C58.783 208.8 58.3498 209.292 57.7923 209.643C57.2383 209.995 56.592 210.17 55.8533 210.17ZM55.8533 209.041C56.4144 209.041 56.8761 208.897 57.2383 208.61C57.6005 208.322 57.8686 207.944 58.0426 207.475C58.2166 207.006 58.3036 206.499 58.3036 205.952C58.3036 205.405 58.2166 204.895 58.0426 204.423C57.8686 203.951 57.6005 203.569 57.2383 203.278C56.8761 202.987 56.4144 202.841 55.8533 202.841C55.2923 202.841 54.8306 202.987 54.4684 203.278C54.1062 203.569 53.8381 203.951 53.6641 204.423C53.4901 204.895 53.4031 205.405 53.4031 205.952C53.4031 206.499 53.4901 207.006 53.6641 207.475C53.8381 207.944 54.1062 208.322 54.4684 208.61C54.8306 208.897 55.2923 209.041 55.8533 209.041ZM62.7368 205.078V210H61.4797V201.818H62.6942V203.097H62.8007C62.9925 202.681 63.2836 202.347 63.6743 202.095C64.0649 201.839 64.5692 201.712 65.1871 201.712C65.741 201.712 66.2258 201.825 66.6412 202.053C67.0567 202.276 67.3799 202.617 67.6107 203.075C67.8415 203.53 67.9569 204.105 67.9569 204.801V210H66.6998V204.886C66.6998 204.244 66.5329 203.743 66.1991 203.384C65.8653 203.022 65.4072 202.841 64.8248 202.841C64.4236 202.841 64.0649 202.928 63.7488 203.102C63.4363 203.276 63.1895 203.53 63.0084 203.864C62.8273 204.197 62.7368 204.602 62.7368 205.078ZM76.0495 203.651L74.9203 203.97C74.8493 203.782 74.7445 203.599 74.606 203.422C74.4711 203.24 74.2864 203.091 74.052 202.974C73.8176 202.857 73.5176 202.798 73.1518 202.798C72.6511 202.798 72.2338 202.914 71.9 203.145C71.5698 203.372 71.4047 203.661 71.4047 204.013C71.4047 204.325 71.5183 204.572 71.7456 204.753C71.9728 204.934 72.3279 205.085 72.8109 205.206L74.0254 205.504C74.7569 205.682 75.302 205.953 75.6607 206.319C76.0194 206.681 76.1987 207.148 76.1987 207.72C76.1987 208.189 76.0637 208.608 75.7939 208.977C75.5275 209.347 75.1547 209.638 74.6752 209.851C74.1958 210.064 73.6383 210.17 73.0027 210.17C72.1681 210.17 71.4775 209.989 70.9306 209.627C70.3837 209.265 70.0375 208.736 69.8919 208.04L71.085 207.741C71.1987 208.182 71.4135 208.512 71.7296 208.732C72.0492 208.952 72.4664 209.062 72.9814 209.062C73.5673 209.062 74.0325 208.938 74.377 208.69C74.725 208.437 74.899 208.136 74.899 207.784C74.899 207.5 74.7995 207.262 74.6007 207.07C74.4018 206.875 74.0964 206.729 73.6845 206.634L72.3208 206.314C71.5716 206.136 71.0211 205.861 70.6696 205.488C70.3216 205.112 70.1475 204.641 70.1475 204.077C70.1475 203.615 70.2772 203.207 70.5364 202.852C70.7992 202.496 71.1561 202.218 71.6071 202.015C72.0616 201.813 72.5765 201.712 73.1518 201.712C73.9615 201.712 74.5971 201.889 75.0588 202.244C75.524 202.599 75.8542 203.068 76.0495 203.651ZM81.5214 210.17C80.733 210.17 80.053 209.996 79.4813 209.648C78.9131 209.297 78.4745 208.807 78.1656 208.178C77.8602 207.546 77.7075 206.811 77.7075 205.973C77.7075 205.135 77.8602 204.396 78.1656 203.757C78.4745 203.114 78.9042 202.614 79.4546 202.255C80.0086 201.893 80.6549 201.712 81.3936 201.712C81.8197 201.712 82.2405 201.783 82.656 201.925C83.0715 202.067 83.4497 202.298 83.7906 202.617C84.1315 202.933 84.4031 203.352 84.6056 203.874C84.808 204.396 84.9092 205.039 84.9092 205.803V206.335H78.6024V205.249H83.6308C83.6308 204.787 83.5384 204.375 83.3538 204.013C83.1727 203.651 82.9134 203.365 82.5761 203.155C82.2423 202.946 81.8481 202.841 81.3936 202.841C80.8928 202.841 80.4596 202.965 80.0938 203.214C79.7316 203.459 79.4529 203.778 79.2575 204.173C79.0622 204.567 78.9646 204.989 78.9646 205.44V206.165C78.9646 206.783 79.0711 207.306 79.2842 207.736C79.5008 208.162 79.8009 208.487 80.1844 208.711C80.5679 208.931 81.0136 209.041 81.5214 209.041C81.8517 209.041 82.1499 208.995 82.4163 208.903C82.6862 208.807 82.9188 208.665 83.1141 208.477C83.3094 208.285 83.4603 208.047 83.5669 207.763L84.7813 208.104C84.6535 208.516 84.4387 208.878 84.1368 209.19C83.835 209.499 83.4621 209.741 83.0182 209.915C82.5743 210.085 82.0754 210.17 81.5214 210.17ZM90.1453 210.17C89.3783 210.17 88.7178 209.989 88.1638 209.627C87.6098 209.265 87.1837 208.766 86.8854 208.13C86.5871 207.495 86.4379 206.768 86.4379 205.952C86.4379 205.121 86.5906 204.387 86.896 203.752C87.205 203.113 87.6347 202.614 88.1851 202.255C88.7391 201.893 89.3854 201.712 90.124 201.712C90.6993 201.712 91.2178 201.818 91.6794 202.031C92.1411 202.244 92.5193 202.543 92.814 202.926C93.1088 203.31 93.2916 203.757 93.3627 204.268H92.1056C92.0097 203.896 91.7966 203.565 91.4664 203.278C91.1396 202.987 90.6993 202.841 90.1453 202.841C89.6553 202.841 89.2256 202.969 88.8563 203.224C88.4905 203.477 88.2046 203.833 87.9987 204.295C87.7963 204.753 87.695 205.291 87.695 205.909C87.695 206.541 87.7945 207.092 87.9933 207.56C88.1958 208.029 88.4798 208.393 88.8456 208.652C89.2149 208.912 89.6482 209.041 90.1453 209.041C90.472 209.041 90.7686 208.984 91.0349 208.871C91.3012 208.757 91.5267 208.594 91.7114 208.381C91.896 208.168 92.0274 207.912 92.1056 207.614H93.3627C93.2916 208.097 93.1159 208.532 92.8353 208.919C92.5583 209.302 92.1908 209.608 91.7327 209.835C91.2781 210.059 90.749 210.17 90.1453 210.17ZM98.7586 201.818V202.884H94.5186V201.818H98.7586ZM95.7544 199.858H97.0115V207.656C97.0115 208.011 97.0629 208.278 97.1659 208.455C97.2725 208.629 97.4074 208.746 97.5708 208.807C97.7377 208.864 97.9134 208.892 98.0981 208.892C98.2366 208.892 98.3502 208.885 98.439 208.871C98.5278 208.853 98.5988 208.839 98.6521 208.828L98.9078 209.957C98.8225 209.989 98.7036 210.021 98.5509 210.053C98.3982 210.089 98.2046 210.107 97.9703 210.107C97.6151 210.107 97.2671 210.03 96.9262 209.877C96.5889 209.725 96.3083 209.492 96.0846 209.18C95.8644 208.867 95.7544 208.473 95.7544 207.997V199.858ZM103.992 210.17C103.204 210.17 102.524 209.996 101.952 209.648C101.384 209.297 100.945 208.807 100.636 208.178C100.331 207.546 100.178 206.811 100.178 205.973C100.178 205.135 100.331 204.396 100.636 203.757C100.945 203.114 101.375 202.614 101.925 202.255C102.479 201.893 103.126 201.712 103.864 201.712C104.29 201.712 104.711 201.783 105.127 201.925C105.542 202.067 105.92 202.298 106.261 202.617C106.602 202.933 106.874 203.352 107.076 203.874C107.279 204.396 107.38 205.039 107.38 205.803V206.335H101.073V205.249H106.101C106.101 204.787 106.009 204.375 105.824 204.013C105.643 203.651 105.384 203.365 105.047 203.155C104.713 202.946 104.319 202.841 103.864 202.841C103.364 202.841 102.93 202.965 102.565 203.214C102.202 203.459 101.924 203.778 101.728 204.173C101.533 204.567 101.435 204.989 101.435 205.44V206.165C101.435 206.783 101.542 207.306 101.755 207.736C101.972 208.162 102.272 208.487 102.655 208.711C103.039 208.931 103.484 209.041 103.992 209.041C104.322 209.041 104.621 208.995 104.887 208.903C105.157 208.807 105.389 208.665 105.585 208.477C105.78 208.285 105.931 208.047 106.038 207.763L107.252 208.104C107.124 208.516 106.909 208.878 106.608 209.19C106.306 209.499 105.933 209.741 105.489 209.915C105.045 210.085 104.546 210.17 103.992 210.17ZM112.85 201.818V202.884H108.61V201.818H112.85ZM109.846 199.858H111.103V207.656C111.103 208.011 111.155 208.278 111.258 208.455C111.364 208.629 111.499 208.746 111.663 208.807C111.829 208.864 112.005 208.892 112.19 208.892C112.328 208.892 112.442 208.885 112.531 208.871C112.62 208.853 112.691 208.839 112.744 208.828L113 209.957C112.914 209.989 112.795 210.021 112.643 210.053C112.49 210.089 112.296 210.107 112.062 210.107C111.707 210.107 111.359 210.03 111.018 209.877C110.681 209.725 110.4 209.492 110.176 209.18C109.956 208.867 109.846 208.473 109.846 207.997V199.858ZM119.898 206.655V201.818H121.155V210H119.898V208.615H119.812C119.621 209.031 119.322 209.384 118.918 209.675C118.513 209.963 118.001 210.107 117.383 210.107C116.872 210.107 116.418 209.995 116.02 209.771C115.622 209.544 115.31 209.203 115.082 208.748C114.855 208.29 114.741 207.713 114.741 207.017V201.818H115.998V206.932C115.998 207.528 116.165 208.004 116.499 208.359C116.837 208.714 117.266 208.892 117.788 208.892C118.101 208.892 118.419 208.812 118.742 208.652C119.068 208.493 119.342 208.248 119.562 207.917C119.786 207.587 119.898 207.166 119.898 206.655ZM123.457 210V201.818H124.672V203.054H124.757C124.906 202.649 125.176 202.321 125.567 202.069C125.957 201.816 126.398 201.69 126.888 201.69C126.98 201.69 127.095 201.692 127.234 201.696C127.372 201.699 127.477 201.705 127.548 201.712V202.99C127.506 202.979 127.408 202.963 127.255 202.942C127.106 202.917 126.948 202.905 126.781 202.905C126.383 202.905 126.028 202.988 125.716 203.155C125.407 203.319 125.162 203.546 124.981 203.837C124.803 204.125 124.714 204.453 124.714 204.822V210H123.457ZM129.017 210.085C128.754 210.085 128.529 209.991 128.34 209.803C128.152 209.615 128.058 209.389 128.058 209.126C128.058 208.864 128.152 208.638 128.34 208.45C128.529 208.262 128.754 208.168 129.017 208.168C129.28 208.168 129.505 208.262 129.693 208.45C129.882 208.638 129.976 208.864 129.976 209.126C129.976 209.3 129.931 209.46 129.843 209.606C129.757 209.751 129.642 209.869 129.496 209.957C129.354 210.043 129.195 210.085 129.017 210.085ZM137.942 199.091V210H136.621V199.091H137.942ZM140.42 210V201.818H141.635V203.097H141.741C141.912 202.66 142.187 202.321 142.567 202.079C142.947 201.834 143.403 201.712 143.936 201.712C144.475 201.712 144.925 201.834 145.283 202.079C145.646 202.321 145.928 202.66 146.13 203.097H146.216C146.425 202.674 146.739 202.338 147.158 202.09C147.577 201.838 148.08 201.712 148.666 201.712C149.397 201.712 149.996 201.941 150.461 202.399C150.926 202.853 151.159 203.562 151.159 204.524V210H149.902V204.524C149.902 203.92 149.737 203.489 149.406 203.23C149.076 202.971 148.687 202.841 148.24 202.841C147.664 202.841 147.219 203.015 146.903 203.363C146.587 203.707 146.429 204.144 146.429 204.673V210H145.15V204.396C145.15 203.931 144.999 203.556 144.697 203.272C144.396 202.985 144.007 202.841 143.531 202.841C143.204 202.841 142.899 202.928 142.615 203.102C142.334 203.276 142.107 203.517 141.933 203.826C141.762 204.132 141.677 204.485 141.677 204.886V210H140.42ZM153.457 213.068V201.818H154.672V203.118H154.821C154.913 202.976 155.041 202.795 155.204 202.575C155.371 202.351 155.609 202.152 155.918 201.978C156.231 201.8 156.653 201.712 157.186 201.712C157.875 201.712 158.482 201.884 159.008 202.228C159.533 202.573 159.943 203.061 160.238 203.693C160.533 204.325 160.68 205.071 160.68 205.93C160.68 206.797 160.533 207.548 160.238 208.184C159.943 208.816 159.535 209.306 159.013 209.654C158.491 209.998 157.889 210.17 157.207 210.17C156.682 210.17 156.261 210.083 155.945 209.909C155.629 209.732 155.385 209.531 155.215 209.308C155.045 209.08 154.913 208.892 154.821 208.743H154.714V213.068H153.457ZM154.693 205.909C154.693 206.527 154.784 207.072 154.965 207.544C155.146 208.013 155.41 208.381 155.758 208.647C156.106 208.91 156.532 209.041 157.037 209.041C157.562 209.041 158.001 208.903 158.352 208.626C158.708 208.345 158.974 207.969 159.151 207.496C159.333 207.021 159.423 206.491 159.423 205.909C159.423 205.334 159.334 204.815 159.157 204.354C158.983 203.888 158.718 203.521 158.363 203.251C158.012 202.978 157.569 202.841 157.037 202.841C156.525 202.841 156.096 202.971 155.748 203.23C155.4 203.485 155.137 203.844 154.959 204.306C154.782 204.764 154.693 205.298 154.693 205.909ZM166.028 210.17C165.24 210.17 164.56 209.996 163.988 209.648C163.42 209.297 162.981 208.807 162.672 208.178C162.367 207.546 162.214 206.811 162.214 205.973C162.214 205.135 162.367 204.396 162.672 203.757C162.981 203.114 163.411 202.614 163.961 202.255C164.515 201.893 165.162 201.712 165.9 201.712C166.327 201.712 166.747 201.783 167.163 201.925C167.578 202.067 167.956 202.298 168.297 202.617C168.638 202.933 168.91 203.352 169.112 203.874C169.315 204.396 169.416 205.039 169.416 205.803V206.335H163.109V205.249H168.138C168.138 204.787 168.045 204.375 167.861 204.013C167.68 203.651 167.42 203.365 167.083 203.155C166.749 202.946 166.355 202.841 165.9 202.841C165.4 202.841 164.966 202.965 164.601 203.214C164.238 203.459 163.96 203.778 163.764 204.173C163.569 204.567 163.471 204.989 163.471 205.44V206.165C163.471 206.783 163.578 207.306 163.791 207.736C164.008 208.162 164.308 208.487 164.691 208.711C165.075 208.931 165.52 209.041 166.028 209.041C166.358 209.041 166.657 208.995 166.923 208.903C167.193 208.807 167.426 208.665 167.621 208.477C167.816 208.285 167.967 208.047 168.074 207.763L169.288 208.104C169.16 208.516 168.945 208.878 168.644 209.19C168.342 209.499 167.969 209.741 167.525 209.915C167.081 210.085 166.582 210.17 166.028 210.17ZM171.328 210V201.818H172.543V203.054H172.628C172.777 202.649 173.047 202.321 173.438 202.069C173.828 201.816 174.269 201.69 174.759 201.69C174.851 201.69 174.966 201.692 175.105 201.696C175.243 201.699 175.348 201.705 175.419 201.712V202.99C175.377 202.979 175.279 202.963 175.126 202.942C174.977 202.917 174.819 202.905 174.652 202.905C174.254 202.905 173.899 202.988 173.587 203.155C173.278 203.319 173.033 203.546 172.852 203.837C172.674 204.125 172.585 204.453 172.585 204.822V210H171.328ZM179.75 210.17C179.068 210.17 178.466 209.998 177.944 209.654C177.422 209.306 177.014 208.816 176.719 208.184C176.424 207.548 176.277 206.797 176.277 205.93C176.277 205.071 176.424 204.325 176.719 203.693C177.014 203.061 177.424 202.573 177.949 202.228C178.475 201.884 179.082 201.712 179.771 201.712C180.304 201.712 180.725 201.8 181.034 201.978C181.346 202.152 181.584 202.351 181.747 202.575C181.914 202.795 182.044 202.976 182.136 203.118H182.243V199.091H183.5V210H182.285V208.743H182.136C182.044 208.892 181.912 209.08 181.742 209.308C181.572 209.531 181.328 209.732 181.012 209.909C180.696 210.083 180.275 210.17 179.75 210.17ZM179.92 209.041C180.425 209.041 180.851 208.91 181.199 208.647C181.547 208.381 181.811 208.013 181.992 207.544C182.173 207.072 182.264 206.527 182.264 205.909C182.264 205.298 182.175 204.764 181.998 204.306C181.82 203.844 181.557 203.485 181.209 203.23C180.861 202.971 180.432 202.841 179.92 202.841C179.388 202.841 178.944 202.978 178.589 203.251C178.237 203.521 177.972 203.888 177.795 204.354C177.621 204.815 177.534 205.334 177.534 205.909C177.534 206.491 177.623 207.021 177.8 207.496C177.981 207.969 178.248 208.345 178.599 208.626C178.954 208.903 179.395 209.041 179.92 209.041ZM185.977 210V201.818H187.234V210H185.977ZM186.616 200.455C186.371 200.455 186.16 200.371 185.982 200.204C185.808 200.037 185.721 199.837 185.721 199.602C185.721 199.368 185.808 199.167 185.982 199C186.16 198.833 186.371 198.75 186.616 198.75C186.861 198.75 187.07 198.833 187.244 199C187.422 199.167 187.511 199.368 187.511 199.602C187.511 199.837 187.422 200.037 187.244 200.204C187.07 200.371 186.861 200.455 186.616 200.455ZM192.967 210.17C192.178 210.17 191.498 209.996 190.927 209.648C190.358 209.297 189.92 208.807 189.611 208.178C189.305 207.546 189.153 206.811 189.153 205.973C189.153 205.135 189.305 204.396 189.611 203.757C189.92 203.114 190.35 202.614 190.9 202.255C191.454 201.893 192.1 201.712 192.839 201.712C193.265 201.712 193.686 201.783 194.101 201.925C194.517 202.067 194.895 202.298 195.236 202.617C195.577 202.933 195.848 203.352 196.051 203.874C196.253 204.396 196.354 205.039 196.354 205.803V206.335H190.048V205.249H195.076C195.076 204.787 194.984 204.375 194.799 204.013C194.618 203.651 194.359 203.365 194.021 203.155C193.688 202.946 193.293 202.841 192.839 202.841C192.338 202.841 191.905 202.965 191.539 203.214C191.177 203.459 190.898 203.778 190.703 204.173C190.508 204.567 190.41 204.989 190.41 205.44V206.165C190.41 206.783 190.516 207.306 190.729 207.736C190.946 208.162 191.246 208.487 191.63 208.711C192.013 208.931 192.459 209.041 192.967 209.041C193.297 209.041 193.595 208.995 193.862 208.903C194.131 208.807 194.364 208.665 194.559 208.477C194.755 208.285 194.906 208.047 195.012 207.763L196.227 208.104C196.099 208.516 195.884 208.878 195.582 209.19C195.28 209.499 194.907 209.741 194.464 209.915C194.02 210.085 193.521 210.17 192.967 210.17ZM201.825 201.818V202.884H197.585V201.818H201.825ZM198.821 199.858H200.078V207.656C200.078 208.011 200.129 208.278 200.232 208.455C200.339 208.629 200.474 208.746 200.637 208.807C200.804 208.864 200.98 208.892 201.165 208.892C201.303 208.892 201.417 208.885 201.505 208.871C201.594 208.853 201.665 208.839 201.718 208.828L201.974 209.957C201.889 209.989 201.77 210.021 201.617 210.053C201.465 210.089 201.271 210.107 201.037 210.107C200.682 210.107 200.334 210.03 199.993 209.877C199.655 209.725 199.375 209.492 199.151 209.18C198.931 208.867 198.821 208.473 198.821 207.997V199.858ZM211.493 201.818V202.884H207.253V201.818H211.493ZM208.489 199.858H209.746V207.656C209.746 208.011 209.797 208.278 209.9 208.455C210.007 208.629 210.142 208.746 210.305 208.807C210.472 208.864 210.648 208.892 210.832 208.892C210.971 208.892 211.085 208.885 211.173 208.871C211.262 208.853 211.333 208.839 211.386 208.828L211.642 209.957C211.557 209.989 211.438 210.021 211.285 210.053C211.133 210.089 210.939 210.107 210.705 210.107C210.35 210.107 210.002 210.03 209.661 209.877C209.323 209.725 209.043 209.492 208.819 209.18C208.599 208.867 208.489 208.473 208.489 207.997V199.858ZM216.726 210.17C215.938 210.17 215.258 209.996 214.686 209.648C214.118 209.297 213.68 208.807 213.371 208.178C213.065 207.546 212.913 206.811 212.913 205.973C212.913 205.135 213.065 204.396 213.371 203.757C213.68 203.114 214.109 202.614 214.66 202.255C215.214 201.893 215.86 201.712 216.599 201.712C217.025 201.712 217.446 201.783 217.861 201.925C218.277 202.067 218.655 202.298 218.996 202.617C219.337 202.933 219.608 203.352 219.811 203.874C220.013 204.396 220.114 205.039 220.114 205.803V206.335H213.807V205.249H218.836C218.836 204.787 218.744 204.375 218.559 204.013C218.378 203.651 218.119 203.365 217.781 203.155C217.447 202.946 217.053 202.841 216.599 202.841C216.098 202.841 215.665 202.965 215.299 203.214C214.937 203.459 214.658 203.778 214.463 204.173C214.267 204.567 214.17 204.989 214.17 205.44V206.165C214.17 206.783 214.276 207.306 214.489 207.736C214.706 208.162 215.006 208.487 215.389 208.711C215.773 208.931 216.219 209.041 216.726 209.041C217.057 209.041 217.355 208.995 217.621 208.903C217.891 208.807 218.124 208.665 218.319 208.477C218.514 208.285 218.665 208.047 218.772 207.763L219.986 208.104C219.859 208.516 219.644 208.878 219.342 209.19C219.04 209.499 218.667 209.741 218.223 209.915C217.779 210.085 217.28 210.17 216.726 210.17ZM223.284 199.091V210H222.027V199.091H223.284ZM226.843 199.091V210H225.586V199.091H226.843ZM234.302 206.655V201.818H235.559V210H234.302V208.615H234.217C234.025 209.031 233.727 209.384 233.322 209.675C232.917 209.963 232.406 210.107 231.788 210.107C231.276 210.107 230.822 209.995 230.424 209.771C230.026 209.544 229.714 209.203 229.487 208.748C229.259 208.29 229.146 207.713 229.146 207.017V201.818H230.403V206.932C230.403 207.528 230.57 208.004 230.903 208.359C231.241 208.714 231.671 208.892 232.193 208.892C232.505 208.892 232.823 208.812 233.146 208.652C233.473 208.493 233.746 208.248 233.966 207.917C234.19 207.587 234.302 207.166 234.302 206.655ZM243.657 203.651L242.528 203.97C242.457 203.782 242.352 203.599 242.213 203.422C242.078 203.24 241.894 203.091 241.659 202.974C241.425 202.857 241.125 202.798 240.759 202.798C240.259 202.798 239.841 202.914 239.507 203.145C239.177 203.372 239.012 203.661 239.012 204.013C239.012 204.325 239.126 204.572 239.353 204.753C239.58 204.934 239.935 205.085 240.418 205.206L241.633 205.504C242.364 205.682 242.909 205.953 243.268 206.319C243.627 206.681 243.806 207.148 243.806 207.72C243.806 208.189 243.671 208.608 243.401 208.977C243.135 209.347 242.762 209.638 242.283 209.851C241.803 210.064 241.246 210.17 240.61 210.17C239.776 210.17 239.085 209.989 238.538 209.627C237.991 209.265 237.645 208.736 237.499 208.04L238.692 207.741C238.806 208.182 239.021 208.512 239.337 208.732C239.657 208.952 240.074 209.062 240.589 209.062C241.175 209.062 241.64 208.938 241.984 208.69C242.332 208.437 242.506 208.136 242.506 207.784C242.506 207.5 242.407 207.262 242.208 207.07C242.009 206.875 241.704 206.729 241.292 206.634L239.928 206.314C239.179 206.136 238.629 205.861 238.277 205.488C237.929 205.112 237.755 204.641 237.755 204.077C237.755 203.615 237.885 203.207 238.144 202.852C238.407 202.496 238.763 202.218 239.214 202.015C239.669 201.813 240.184 201.712 240.759 201.712C241.569 201.712 242.205 201.889 242.666 202.244C243.131 202.599 243.462 203.068 243.657 203.651ZM255.073 206.655V201.818H256.331V210H255.073V208.615H254.988C254.796 209.031 254.498 209.384 254.093 209.675C253.688 209.963 253.177 210.107 252.559 210.107C252.048 210.107 251.593 209.995 251.196 209.771C250.798 209.544 250.485 209.203 250.258 208.748C250.031 208.29 249.917 207.713 249.917 207.017V201.818H251.174V206.932C251.174 207.528 251.341 208.004 251.675 208.359C252.012 208.714 252.442 208.892 252.964 208.892C253.277 208.892 253.594 208.812 253.918 208.652C254.244 208.493 254.518 208.248 254.738 207.917C254.962 207.587 255.073 207.166 255.073 206.655ZM262.191 201.818V202.884H257.951V201.818H262.191ZM259.187 199.858H260.444V207.656C260.444 208.011 260.496 208.278 260.599 208.455C260.705 208.629 260.84 208.746 261.003 208.807C261.17 208.864 261.346 208.892 261.531 208.892C261.669 208.892 261.783 208.885 261.872 208.871C261.96 208.853 262.031 208.839 262.085 208.828L262.34 209.957C262.255 209.989 262.136 210.021 261.983 210.053C261.831 210.089 261.637 210.107 261.403 210.107C261.048 210.107 260.7 210.03 260.359 209.877C260.021 209.725 259.741 209.492 259.517 209.18C259.297 208.867 259.187 208.473 259.187 207.997V199.858ZM47.4744 232.17C46.7358 232.17 46.0877 231.995 45.5302 231.643C44.9762 231.292 44.543 230.8 44.2305 230.168C43.9215 229.536 43.767 228.797 43.767 227.952C43.767 227.099 43.9215 226.355 44.2305 225.72C44.543 225.084 44.9762 224.591 45.5302 224.239C46.0877 223.887 46.7358 223.712 47.4744 223.712C48.2131 223.712 48.8594 223.887 49.4134 224.239C49.9709 224.591 50.4041 225.084 50.7131 225.72C51.0256 226.355 51.1818 227.099 51.1818 227.952C51.1818 228.797 51.0256 229.536 50.7131 230.168C50.4041 230.8 49.9709 231.292 49.4134 231.643C48.8594 231.995 48.2131 232.17 47.4744 232.17ZM47.4744 231.041C48.0355 231.041 48.4972 230.897 48.8594 230.61C49.2216 230.322 49.4897 229.944 49.6637 229.475C49.8377 229.006 49.9247 228.499 49.9247 227.952C49.9247 227.405 49.8377 226.895 49.6637 226.423C49.4897 225.951 49.2216 225.569 48.8594 225.278C48.4972 224.987 48.0355 224.841 47.4744 224.841C46.9134 224.841 46.4517 224.987 46.0895 225.278C45.7273 225.569 45.4592 225.951 45.2852 226.423C45.1112 226.895 45.0241 227.405 45.0241 227.952C45.0241 228.499 45.1112 229.006 45.2852 229.475C45.4592 229.944 45.7273 230.322 46.0895 230.61C46.4517 230.897 46.9134 231.041 47.4744 231.041ZM53.1008 232V223.818H54.3153V225.054H54.4005C54.5496 224.649 54.8195 224.321 55.2101 224.069C55.6008 223.816 56.0411 223.69 56.5312 223.69C56.6235 223.69 56.7389 223.692 56.8774 223.696C57.0159 223.699 57.1207 223.705 57.1917 223.712V224.99C57.1491 224.979 57.0514 224.963 56.8987 224.942C56.7496 224.917 56.5915 224.905 56.4246 224.905C56.0269 224.905 55.6718 224.988 55.3593 225.155C55.0503 225.319 54.8053 225.546 54.6242 225.837C54.4466 226.125 54.3579 226.453 54.3579 226.822V232H53.1008ZM59.9389 227.078V232H58.6818V223.818H59.8963V225.097H60.0028C60.1946 224.681 60.4858 224.347 60.8764 224.095C61.267 223.839 61.7713 223.712 62.3892 223.712C62.9432 223.712 63.4279 223.825 63.8434 224.053C64.2589 224.276 64.582 224.617 64.8129 225.075C65.0437 225.53 65.1591 226.105 65.1591 226.801V232H63.902V226.886C63.902 226.244 63.7351 225.743 63.4013 225.384C63.0675 225.022 62.6094 224.841 62.027 224.841C61.6257 224.841 61.267 224.928 60.951 225.102C60.6385 225.276 60.3917 225.53 60.2106 225.864C60.0295 226.197 59.9389 226.602 59.9389 227.078ZM69.8639 232.192C69.3454 232.192 68.8749 232.094 68.4523 231.899C68.0297 231.7 67.6942 231.414 67.4456 231.041C67.197 230.665 67.0727 230.21 67.0727 229.678C67.0727 229.209 67.165 228.829 67.3497 228.538C67.5344 228.243 67.7812 228.012 68.0901 227.845C68.3991 227.678 68.74 227.554 69.1128 227.472C69.4893 227.387 69.8675 227.32 70.2474 227.27C70.7446 227.206 71.1476 227.158 71.4566 227.126C71.7691 227.091 71.9964 227.032 72.1384 226.95C72.284 226.869 72.3568 226.727 72.3568 226.524V226.482C72.3568 225.956 72.213 225.548 71.9253 225.256C71.6412 224.965 71.2098 224.82 70.6309 224.82C70.0308 224.82 69.5603 224.951 69.2194 225.214C68.8785 225.477 68.6388 225.757 68.5003 226.055L67.3071 225.629C67.5202 225.132 67.8042 224.745 68.1594 224.468C68.518 224.187 68.9086 223.992 69.3312 223.882C69.7574 223.768 70.1764 223.712 70.5883 223.712C70.8511 223.712 71.153 223.744 71.4939 223.808C71.8383 223.868 72.1704 223.994 72.49 224.186C72.8131 224.377 73.0812 224.667 73.2943 225.054C73.5074 225.441 73.6139 225.96 73.6139 226.609V232H72.3568V230.892H72.2929C72.2077 231.07 72.0656 231.26 71.8667 231.462C71.6679 231.664 71.4033 231.837 71.0731 231.979C70.7428 232.121 70.3398 232.192 69.8639 232.192ZM70.0557 231.062C70.5528 231.062 70.9719 230.965 71.3128 230.77C71.6572 230.574 71.9165 230.322 72.0905 230.013C72.268 229.704 72.3568 229.379 72.3568 229.038V227.888C72.3035 227.952 72.1863 228.01 72.0052 228.064C71.8277 228.113 71.6217 228.158 71.3873 228.197C71.1565 228.232 70.931 228.264 70.7108 228.293C70.4942 228.317 70.3184 228.339 70.1835 228.357C69.8568 228.399 69.5514 228.468 69.2673 228.564C68.9868 228.657 68.7595 228.797 68.5855 228.985C68.415 229.17 68.3298 229.422 68.3298 229.741C68.3298 230.178 68.4914 230.509 68.8145 230.732C69.1412 230.952 69.555 231.062 70.0557 231.062ZM75.9084 232V223.818H77.1229V225.054H77.2081C77.3572 224.649 77.6271 224.321 78.0178 224.069C78.4084 223.816 78.8487 223.69 79.3388 223.69C79.4311 223.69 79.5465 223.692 79.685 223.696C79.8235 223.699 79.9283 223.705 79.9993 223.712V224.99C79.9567 224.979 79.859 224.963 79.7063 224.942C79.5572 224.917 79.3991 224.905 79.2322 224.905C78.8345 224.905 78.4794 224.988 78.1669 225.155C77.858 225.319 77.6129 225.546 77.4318 225.837C77.2543 226.125 77.1655 226.453 77.1655 226.822V232H75.9084ZM84.6708 232.17C83.8825 232.17 83.2024 231.996 82.6307 231.648C82.0625 231.297 81.6239 230.807 81.315 230.178C81.0096 229.546 80.8569 228.811 80.8569 227.973C80.8569 227.135 81.0096 226.396 81.315 225.757C81.6239 225.114 82.0536 224.614 82.604 224.255C83.158 223.893 83.8043 223.712 84.543 223.712C84.9691 223.712 85.3899 223.783 85.8054 223.925C86.2209 224.067 86.5991 224.298 86.94 224.617C87.2809 224.933 87.5526 225.352 87.755 225.874C87.9574 226.396 88.0586 227.039 88.0586 227.803V228.335H81.7518V227.249H86.7802C86.7802 226.787 86.6879 226.375 86.5032 226.013C86.3221 225.651 86.0629 225.365 85.7255 225.155C85.3917 224.946 84.9975 224.841 84.543 224.841C84.0423 224.841 83.609 224.965 83.2433 225.214C82.881 225.459 82.6023 225.778 82.407 226.173C82.2116 226.567 82.114 226.989 82.114 227.44V228.165C82.114 228.783 82.2205 229.306 82.4336 229.736C82.6502 230.162 82.9503 230.487 83.3338 230.711C83.7173 230.931 84.163 231.041 84.6708 231.041C85.0011 231.041 85.2994 230.995 85.5657 230.903C85.8356 230.807 86.0682 230.665 86.2635 230.477C86.4588 230.285 86.6097 230.047 86.7163 229.763L87.9308 230.104C87.8029 230.516 87.5881 230.878 87.2862 231.19C86.9844 231.499 86.6115 231.741 86.1676 231.915C85.7237 232.085 85.2248 232.17 84.6708 232.17ZM94.1896 235.068V223.818H95.4041V225.118H95.5533C95.6456 224.976 95.7734 224.795 95.9368 224.575C96.1037 224.351 96.3416 224.152 96.6506 223.978C96.9631 223.8 97.3857 223.712 97.9183 223.712C98.6072 223.712 99.2145 223.884 99.7401 224.228C100.266 224.573 100.676 225.061 100.971 225.693C101.265 226.325 101.413 227.071 101.413 227.93C101.413 228.797 101.265 229.548 100.971 230.184C100.676 230.816 100.267 231.306 99.7454 231.654C99.2234 231.998 98.6214 232.17 97.9396 232.17C97.4141 232.17 96.9933 232.083 96.6772 231.909C96.3612 231.732 96.1179 231.531 95.9474 231.308C95.777 231.08 95.6456 230.892 95.5533 230.743H95.4467V235.068H94.1896ZM95.4254 227.909C95.4254 228.527 95.516 229.072 95.6971 229.544C95.8782 230.013 96.1428 230.381 96.4908 230.647C96.8388 230.91 97.2649 231.041 97.7692 231.041C98.2947 231.041 98.7333 230.903 99.0849 230.626C99.44 230.345 99.7063 229.969 99.8839 229.496C100.065 229.021 100.156 228.491 100.156 227.909C100.156 227.334 100.067 226.815 99.8892 226.354C99.7152 225.888 99.4506 225.521 99.0955 225.251C98.744 224.978 98.3018 224.841 97.7692 224.841C97.2578 224.841 96.8281 224.971 96.4801 225.23C96.1321 225.485 95.8693 225.844 95.6918 226.306C95.5142 226.764 95.4254 227.298 95.4254 227.909ZM104.587 227.078V232H103.33V221.091H104.587V225.097H104.694C104.886 224.674 105.173 224.338 105.557 224.09C105.944 223.838 106.459 223.712 107.102 223.712C107.659 223.712 108.147 223.824 108.566 224.047C108.985 224.267 109.31 224.607 109.541 225.065C109.776 225.519 109.893 226.098 109.893 226.801V232H108.636V226.886C108.636 226.237 108.467 225.734 108.13 225.379C107.796 225.02 107.332 224.841 106.739 224.841C106.327 224.841 105.958 224.928 105.631 225.102C105.308 225.276 105.053 225.53 104.864 225.864C104.68 226.197 104.587 226.602 104.587 227.078ZM114.6 232.192C114.082 232.192 113.611 232.094 113.189 231.899C112.766 231.7 112.43 231.414 112.182 231.041C111.933 230.665 111.809 230.21 111.809 229.678C111.809 229.209 111.901 228.829 112.086 228.538C112.271 228.243 112.517 228.012 112.826 227.845C113.135 227.678 113.476 227.554 113.849 227.472C114.226 227.387 114.604 227.32 114.984 227.27C115.481 227.206 115.884 227.158 116.193 227.126C116.505 227.091 116.733 227.032 116.875 226.95C117.02 226.869 117.093 226.727 117.093 226.524V226.482C117.093 225.956 116.949 225.548 116.662 225.256C116.378 224.965 115.946 224.82 115.367 224.82C114.767 224.82 114.297 224.951 113.956 225.214C113.615 225.477 113.375 225.757 113.237 226.055L112.043 225.629C112.256 225.132 112.541 224.745 112.896 224.468C113.254 224.187 113.645 223.992 114.068 223.882C114.494 223.768 114.913 223.712 115.325 223.712C115.587 223.712 115.889 223.744 116.23 223.808C116.575 223.868 116.907 223.994 117.226 224.186C117.549 224.377 117.818 224.667 118.031 225.054C118.244 225.441 118.35 225.96 118.35 226.609V232H117.093V230.892H117.029C116.944 231.07 116.802 231.26 116.603 231.462C116.404 231.664 116.14 231.837 115.809 231.979C115.479 232.121 115.076 232.192 114.6 232.192ZM114.792 231.062C115.289 231.062 115.708 230.965 116.049 230.77C116.394 230.574 116.653 230.322 116.827 230.013C117.004 229.704 117.093 229.379 117.093 229.038V227.888C117.04 227.952 116.923 228.01 116.742 228.064C116.564 228.113 116.358 228.158 116.124 228.197C115.893 228.232 115.667 228.264 115.447 228.293C115.231 228.317 115.055 228.339 114.92 228.357C114.593 228.399 114.288 228.468 114.004 228.564C113.723 228.657 113.496 228.797 113.322 228.985C113.151 229.17 113.066 229.422 113.066 229.741C113.066 230.178 113.228 230.509 113.551 230.732C113.878 230.952 114.291 231.062 114.792 231.062ZM120.645 232V223.818H121.859V225.054H121.944C122.094 224.649 122.363 224.321 122.754 224.069C123.145 223.816 123.585 223.69 124.075 223.69C124.167 223.69 124.283 223.692 124.421 223.696C124.56 223.699 124.665 223.705 124.736 223.712V224.99C124.693 224.979 124.595 224.963 124.443 224.942C124.294 224.917 124.135 224.905 123.969 224.905C123.571 224.905 123.216 224.988 122.903 225.155C122.594 225.319 122.349 225.546 122.168 225.837C121.991 226.125 121.902 226.453 121.902 226.822V232H120.645ZM129.407 232.17C128.619 232.17 127.939 231.996 127.367 231.648C126.799 231.297 126.36 230.807 126.051 230.178C125.746 229.546 125.593 228.811 125.593 227.973C125.593 227.135 125.746 226.396 126.051 225.757C126.36 225.114 126.79 224.614 127.34 224.255C127.894 223.893 128.541 223.712 129.279 223.712C129.705 223.712 130.126 223.783 130.542 223.925C130.957 224.067 131.335 224.298 131.676 224.617C132.017 224.933 132.289 225.352 132.491 225.874C132.694 226.396 132.795 227.039 132.795 227.803V228.335H126.488V227.249H131.517C131.517 226.787 131.424 226.375 131.24 226.013C131.058 225.651 130.799 225.365 130.462 225.155C130.128 224.946 129.734 224.841 129.279 224.841C128.779 224.841 128.345 224.965 127.98 225.214C127.617 225.459 127.339 225.778 127.143 226.173C126.948 226.567 126.85 226.989 126.85 227.44V228.165C126.85 228.783 126.957 229.306 127.17 229.736C127.387 230.162 127.687 230.487 128.07 230.711C128.454 230.931 128.899 231.041 129.407 231.041C129.737 231.041 130.036 230.995 130.302 230.903C130.572 230.807 130.805 230.665 131 230.477C131.195 230.285 131.346 230.047 131.453 229.763L132.667 230.104C132.539 230.516 132.324 230.878 132.023 231.19C131.721 231.499 131.348 231.741 130.904 231.915C130.46 232.085 129.961 232.17 129.407 232.17ZM138.265 223.818V224.884H134.025V223.818H138.265ZM135.261 221.858H136.518V229.656C136.518 230.011 136.57 230.278 136.673 230.455C136.779 230.629 136.914 230.746 137.078 230.807C137.244 230.864 137.42 230.892 137.605 230.892C137.743 230.892 137.857 230.885 137.946 230.871C138.035 230.853 138.106 230.839 138.159 230.828L138.415 231.957C138.329 231.989 138.21 232.021 138.058 232.053C137.905 232.089 137.711 232.107 137.477 232.107C137.122 232.107 136.774 232.03 136.433 231.877C136.096 231.725 135.815 231.492 135.591 231.18C135.371 230.867 135.261 230.473 135.261 229.997V221.858ZM140.156 232V223.818H141.371V225.054H141.456C141.605 224.649 141.875 224.321 142.266 224.069C142.656 223.816 143.097 223.69 143.587 223.69C143.679 223.69 143.795 223.692 143.933 223.696C144.072 223.699 144.176 223.705 144.247 223.712V224.99C144.205 224.979 144.107 224.963 143.954 224.942C143.805 224.917 143.647 224.905 143.48 224.905C143.083 224.905 142.727 224.988 142.415 225.155C142.106 225.319 141.861 225.546 141.68 225.837C141.502 226.125 141.414 226.453 141.414 226.822V232H140.156ZM148.145 232.192C147.627 232.192 147.156 232.094 146.734 231.899C146.311 231.7 145.975 231.414 145.727 231.041C145.478 230.665 145.354 230.21 145.354 229.678C145.354 229.209 145.446 228.829 145.631 228.538C145.816 228.243 146.062 228.012 146.371 227.845C146.68 227.678 147.021 227.554 147.394 227.472C147.771 227.387 148.149 227.32 148.529 227.27C149.026 227.206 149.429 227.158 149.738 227.126C150.05 227.091 150.278 227.032 150.42 226.95C150.565 226.869 150.638 226.727 150.638 226.524V226.482C150.638 225.956 150.494 225.548 150.207 225.256C149.922 224.965 149.491 224.82 148.912 224.82C148.312 224.82 147.842 224.951 147.501 225.214C147.16 225.477 146.92 225.757 146.782 226.055L145.588 225.629C145.801 225.132 146.085 224.745 146.441 224.468C146.799 224.187 147.19 223.992 147.612 223.882C148.039 223.768 148.458 223.712 148.87 223.712C149.132 223.712 149.434 223.744 149.775 223.808C150.12 223.868 150.452 223.994 150.771 224.186C151.094 224.377 151.362 224.667 151.576 225.054C151.789 225.441 151.895 225.96 151.895 226.609V232H150.638V230.892H150.574C150.489 231.07 150.347 231.26 150.148 231.462C149.949 231.664 149.685 231.837 149.354 231.979C149.024 232.121 148.621 232.192 148.145 232.192ZM148.337 231.062C148.834 231.062 149.253 230.965 149.594 230.77C149.938 230.574 150.198 230.322 150.372 230.013C150.549 229.704 150.638 229.379 150.638 229.038V227.888C150.585 227.952 150.468 228.01 150.286 228.064C150.109 228.113 149.903 228.158 149.669 228.197C149.438 228.232 149.212 228.264 148.992 228.293C148.775 228.317 148.6 228.339 148.465 228.357C148.138 228.399 147.833 228.468 147.549 228.564C147.268 228.657 147.041 228.797 146.867 228.985C146.696 229.17 146.611 229.422 146.611 229.741C146.611 230.178 146.773 230.509 147.096 230.732C147.422 230.952 147.836 231.062 148.337 231.062ZM159.665 221.091V232H158.408V221.091H159.665ZM165.398 232.17C164.61 232.17 163.93 231.996 163.358 231.648C162.79 231.297 162.351 230.807 162.043 230.178C161.737 229.546 161.584 228.811 161.584 227.973C161.584 227.135 161.737 226.396 162.043 225.757C162.351 225.114 162.781 224.614 163.332 224.255C163.886 223.893 164.532 223.712 165.271 223.712C165.697 223.712 166.117 223.783 166.533 223.925C166.948 224.067 167.327 224.298 167.668 224.617C168.008 224.933 168.28 225.352 168.483 225.874C168.685 226.396 168.786 227.039 168.786 227.803V228.335H162.479V227.249H167.508C167.508 226.787 167.415 226.375 167.231 226.013C167.05 225.651 166.79 225.365 166.453 225.155C166.119 224.946 165.725 224.841 165.271 224.841C164.77 224.841 164.337 224.965 163.971 225.214C163.609 225.459 163.33 225.778 163.134 226.173C162.939 226.567 162.842 226.989 162.842 227.44V228.165C162.842 228.783 162.948 229.306 163.161 229.736C163.378 230.162 163.678 230.487 164.061 230.711C164.445 230.931 164.891 231.041 165.398 231.041C165.729 231.041 166.027 230.995 166.293 230.903C166.563 230.807 166.796 230.665 166.991 230.477C167.186 230.285 167.337 230.047 167.444 229.763L168.658 230.104C168.53 230.516 168.316 230.878 168.014 231.19C167.712 231.499 167.339 231.741 166.895 231.915C166.451 232.085 165.952 232.17 165.398 232.17ZM174.022 232.17C173.284 232.17 172.636 231.995 172.078 231.643C171.524 231.292 171.091 230.8 170.778 230.168C170.469 229.536 170.315 228.797 170.315 227.952C170.315 227.099 170.469 226.355 170.778 225.72C171.091 225.084 171.524 224.591 172.078 224.239C172.636 223.887 173.284 223.712 174.022 223.712C174.761 223.712 175.407 223.887 175.961 224.239C176.519 224.591 176.952 225.084 177.261 225.72C177.573 226.355 177.73 227.099 177.73 227.952C177.73 228.797 177.573 229.536 177.261 230.168C176.952 230.8 176.519 231.292 175.961 231.643C175.407 231.995 174.761 232.17 174.022 232.17ZM174.022 231.041C174.583 231.041 175.045 230.897 175.407 230.61C175.769 230.322 176.038 229.944 176.212 229.475C176.386 229.006 176.473 228.499 176.473 227.952C176.473 227.405 176.386 226.895 176.212 226.423C176.038 225.951 175.769 225.569 175.407 225.278C175.045 224.987 174.583 224.841 174.022 224.841C173.461 224.841 173 224.987 172.637 225.278C172.275 225.569 172.007 225.951 171.833 226.423C171.659 226.895 171.572 227.405 171.572 227.952C171.572 228.499 171.659 229.006 171.833 229.475C172.007 229.944 172.275 230.322 172.637 230.61C173 230.897 173.461 231.041 174.022 231.041ZM190.558 223.818L187.532 232H186.254L183.228 223.818H184.592L186.85 230.338H186.936L189.194 223.818H190.558ZM195.354 232.17C194.566 232.17 193.886 231.996 193.314 231.648C192.746 231.297 192.308 230.807 191.999 230.178C191.693 229.546 191.54 228.811 191.54 227.973C191.54 227.135 191.693 226.396 191.999 225.757C192.308 225.114 192.737 224.614 193.288 224.255C193.842 223.893 194.488 223.712 195.227 223.712C195.653 223.712 196.074 223.783 196.489 223.925C196.904 224.067 197.283 224.298 197.624 224.617C197.964 224.933 198.236 225.352 198.439 225.874C198.641 226.396 198.742 227.039 198.742 227.803V228.335H192.435V227.249H197.464C197.464 226.787 197.371 226.375 197.187 226.013C197.006 225.651 196.746 225.365 196.409 225.155C196.075 224.946 195.681 224.841 195.227 224.841C194.726 224.841 194.293 224.965 193.927 225.214C193.565 225.459 193.286 225.778 193.091 226.173C192.895 226.567 192.798 226.989 192.798 227.44V228.165C192.798 228.783 192.904 229.306 193.117 229.736C193.334 230.162 193.634 230.487 194.017 230.711C194.401 230.931 194.847 231.041 195.354 231.041C195.685 231.041 195.983 230.995 196.249 230.903C196.519 230.807 196.752 230.665 196.947 230.477C197.142 230.285 197.293 230.047 197.4 229.763L198.614 230.104C198.487 230.516 198.272 230.878 197.97 231.19C197.668 231.499 197.295 231.741 196.851 231.915C196.407 232.085 195.908 232.17 195.354 232.17ZM206.45 225.651L205.321 225.97C205.25 225.782 205.145 225.599 205.006 225.422C204.871 225.24 204.687 225.091 204.452 224.974C204.218 224.857 203.918 224.798 203.552 224.798C203.051 224.798 202.634 224.914 202.3 225.145C201.97 225.372 201.805 225.661 201.805 226.013C201.805 226.325 201.919 226.572 202.146 226.753C202.373 226.934 202.728 227.085 203.211 227.206L204.426 227.504C205.157 227.682 205.702 227.953 206.061 228.319C206.42 228.681 206.599 229.148 206.599 229.72C206.599 230.189 206.464 230.608 206.194 230.977C205.928 231.347 205.555 231.638 205.076 231.851C204.596 232.064 204.039 232.17 203.403 232.17C202.569 232.17 201.878 231.989 201.331 231.627C200.784 231.265 200.438 230.736 200.292 230.04L201.485 229.741C201.599 230.182 201.814 230.512 202.13 230.732C202.45 230.952 202.867 231.062 203.382 231.062C203.968 231.062 204.433 230.938 204.777 230.69C205.125 230.437 205.299 230.136 205.299 229.784C205.299 229.5 205.2 229.262 205.001 229.07C204.802 228.875 204.497 228.729 204.085 228.634L202.721 228.314C201.972 228.136 201.422 227.861 201.07 227.488C200.722 227.112 200.548 226.641 200.548 226.077C200.548 225.615 200.678 225.207 200.937 224.852C201.2 224.496 201.556 224.218 202.007 224.015C202.462 223.813 202.977 223.712 203.552 223.712C204.362 223.712 204.998 223.889 205.459 224.244C205.924 224.599 206.255 225.068 206.45 225.651ZM212.05 223.818V224.884H207.81V223.818H212.05ZM209.045 221.858H210.302V229.656C210.302 230.011 210.354 230.278 210.457 230.455C210.563 230.629 210.698 230.746 210.862 230.807C211.029 230.864 211.204 230.892 211.389 230.892C211.528 230.892 211.641 230.885 211.73 230.871C211.819 230.853 211.89 230.839 211.943 230.828L212.199 231.957C212.114 231.989 211.995 232.021 211.842 232.053C211.689 232.089 211.496 232.107 211.261 232.107C210.906 232.107 210.558 232.03 210.217 231.877C209.88 231.725 209.599 231.492 209.376 231.18C209.155 230.867 209.045 230.473 209.045 229.997V221.858ZM213.941 232V223.818H215.198V232H213.941ZM214.58 222.455C214.335 222.455 214.123 222.371 213.946 222.204C213.772 222.037 213.685 221.837 213.685 221.602C213.685 221.368 213.772 221.167 213.946 221C214.123 220.833 214.335 220.75 214.58 220.75C214.825 220.75 215.034 220.833 215.208 221C215.386 221.167 215.475 221.368 215.475 221.602C215.475 221.837 215.386 222.037 215.208 222.204C215.034 222.371 214.825 222.455 214.58 222.455ZM217.671 232V221.091H218.928V225.118H219.034C219.127 224.976 219.254 224.795 219.418 224.575C219.585 224.351 219.823 224.152 220.132 223.978C220.444 223.8 220.867 223.712 221.399 223.712C222.088 223.712 222.695 223.884 223.221 224.228C223.747 224.573 224.157 225.061 224.452 225.693C224.746 226.325 224.894 227.071 224.894 227.93C224.894 228.797 224.746 229.548 224.452 230.184C224.157 230.816 223.748 231.306 223.226 231.654C222.704 231.998 222.102 232.17 221.421 232.17C220.895 232.17 220.474 232.083 220.158 231.909C219.842 231.732 219.599 231.531 219.428 231.308C219.258 231.08 219.127 230.892 219.034 230.743H218.885V232H217.671ZM218.906 227.909C218.906 228.527 218.997 229.072 219.178 229.544C219.359 230.013 219.624 230.381 219.972 230.647C220.32 230.91 220.746 231.041 221.25 231.041C221.776 231.041 222.214 230.903 222.566 230.626C222.921 230.345 223.187 229.969 223.365 229.496C223.546 229.021 223.637 228.491 223.637 227.909C223.637 227.334 223.548 226.815 223.37 226.354C223.196 225.888 222.932 225.521 222.577 225.251C222.225 224.978 221.783 224.841 221.25 224.841C220.739 224.841 220.309 224.971 219.961 225.23C219.613 225.485 219.35 225.844 219.173 226.306C218.995 226.764 218.906 227.298 218.906 227.909ZM231.973 228.655V223.818H233.23V232H231.973V230.615H231.888C231.696 231.031 231.398 231.384 230.993 231.675C230.588 231.963 230.077 232.107 229.459 232.107C228.947 232.107 228.493 231.995 228.095 231.771C227.697 231.544 227.385 231.203 227.157 230.748C226.93 230.29 226.817 229.713 226.817 229.017V223.818H228.074V228.932C228.074 229.528 228.241 230.004 228.574 230.359C228.912 230.714 229.341 230.892 229.863 230.892C230.176 230.892 230.494 230.812 230.817 230.652C231.144 230.493 231.417 230.248 231.637 229.917C231.861 229.587 231.973 229.166 231.973 228.655ZM236.79 221.091V232H235.532V221.091H236.79ZM244.248 228.655V223.818H245.505V232H244.248V230.615H244.163C243.971 231.031 243.673 231.384 243.268 231.675C242.863 231.963 242.352 232.107 241.734 232.107C241.223 232.107 240.768 231.995 240.37 231.771C239.973 231.544 239.66 231.203 239.433 230.748C239.206 230.29 239.092 229.713 239.092 229.017V223.818H240.349V228.932C240.349 229.528 240.516 230.004 240.85 230.359C241.187 230.714 241.617 230.892 242.139 230.892C242.451 230.892 242.769 230.812 243.092 230.652C243.419 230.493 243.692 230.248 243.913 229.917C244.136 229.587 244.248 229.166 244.248 228.655ZM247.808 232V223.818H249.022V225.097H249.129C249.299 224.66 249.574 224.321 249.954 224.079C250.334 223.834 250.791 223.712 251.323 223.712C251.863 223.712 252.312 223.834 252.671 224.079C253.033 224.321 253.316 224.66 253.518 225.097H253.603C253.813 224.674 254.127 224.338 254.546 224.09C254.965 223.838 255.468 223.712 256.054 223.712C256.785 223.712 257.383 223.941 257.849 224.399C258.314 224.853 258.546 225.562 258.546 226.524V232H257.289V226.524C257.289 225.92 257.124 225.489 256.794 225.23C256.464 224.971 256.075 224.841 255.627 224.841C255.052 224.841 254.606 225.015 254.29 225.363C253.974 225.707 253.816 226.144 253.816 226.673V232H252.538V226.396C252.538 225.931 252.387 225.556 252.085 225.272C251.783 224.985 251.394 224.841 250.919 224.841C250.592 224.841 250.286 224.928 250.002 225.102C249.722 225.276 249.495 225.517 249.321 225.826C249.15 226.132 249.065 226.485 249.065 226.886V232H247.808ZM46.5582 254.192C46.0398 254.192 45.5692 254.094 45.1467 253.899C44.7241 253.7 44.3885 253.414 44.1399 253.041C43.8913 252.665 43.767 252.21 43.767 251.678C43.767 251.209 43.8594 250.829 44.044 250.538C44.2287 250.243 44.4755 250.012 44.7844 249.845C45.0934 249.678 45.4343 249.554 45.8072 249.472C46.1836 249.387 46.5618 249.32 46.9418 249.27C47.4389 249.206 47.842 249.158 48.1509 249.126C48.4634 249.091 48.6907 249.032 48.8327 248.95C48.9783 248.869 49.0511 248.727 49.0511 248.524V248.482C49.0511 247.956 48.9073 247.548 48.6197 247.256C48.3356 246.965 47.9041 246.82 47.3253 246.82C46.7251 246.82 46.2546 246.951 45.9137 247.214C45.5728 247.477 45.3331 247.757 45.1946 248.055L44.0014 247.629C44.2145 247.132 44.4986 246.745 44.8537 246.468C45.2124 246.187 45.603 245.992 46.0256 245.882C46.4517 245.768 46.8707 245.712 47.2827 245.712C47.5455 245.712 47.8473 245.744 48.1882 245.808C48.5327 245.868 48.8647 245.994 49.1843 246.186C49.5075 246.377 49.7756 246.667 49.9886 247.054C50.2017 247.441 50.3082 247.96 50.3082 248.609V254H49.0511V252.892H48.9872C48.902 253.07 48.7599 253.26 48.5611 253.462C48.3622 253.664 48.0977 253.837 47.7674 253.979C47.4371 254.121 47.0341 254.192 46.5582 254.192ZM46.75 253.062C47.2472 253.062 47.6662 252.965 48.0071 252.77C48.3516 252.574 48.6108 252.322 48.7848 252.013C48.9624 251.704 49.0511 251.379 49.0511 251.038V249.888C48.9979 249.952 48.8807 250.01 48.6996 250.064C48.522 250.113 48.3161 250.158 48.0817 250.197C47.8509 250.232 47.6254 250.264 47.4052 250.293C47.1886 250.317 47.0128 250.339 46.8778 250.357C46.5511 250.399 46.2457 250.468 45.9616 250.564C45.6811 250.657 45.4538 250.797 45.2798 250.985C45.1094 251.17 45.0241 251.422 45.0241 251.741C45.0241 252.178 45.1857 252.509 45.5089 252.732C45.8356 252.952 46.2493 253.062 46.75 253.062ZM56.161 245.818V246.884H51.9209V245.818H56.161ZM53.1567 243.858H54.4138V251.656C54.4138 252.011 54.4653 252.278 54.5683 252.455C54.6748 252.629 54.8097 252.746 54.9731 252.807C55.14 252.864 55.3158 252.892 55.5004 252.892C55.6389 252.892 55.7526 252.885 55.8414 252.871C55.9301 252.853 56.0012 252.839 56.0544 252.828L56.3101 253.957C56.2249 253.989 56.1059 254.021 55.9532 254.053C55.8005 254.089 55.607 254.107 55.3726 254.107C55.0175 254.107 54.6695 254.03 54.3286 253.877C53.9912 253.725 53.7107 253.492 53.4869 253.18C53.2668 252.867 53.1567 252.473 53.1567 251.997V243.858ZM65.5945 254.17C64.8559 254.17 64.2078 253.995 63.6503 253.643C63.0963 253.292 62.6631 252.8 62.3506 252.168C62.0416 251.536 61.8872 250.797 61.8872 249.952C61.8872 249.099 62.0416 248.355 62.3506 247.72C62.6631 247.084 63.0963 246.591 63.6503 246.239C64.2078 245.887 64.8559 245.712 65.5945 245.712C66.3332 245.712 66.9795 245.887 67.5335 246.239C68.091 246.591 68.5242 247.084 68.8332 247.72C69.1457 248.355 69.3019 249.099 69.3019 249.952C69.3019 250.797 69.1457 251.536 68.8332 252.168C68.5242 252.8 68.091 253.292 67.5335 253.643C66.9795 253.995 66.3332 254.17 65.5945 254.17ZM65.5945 253.041C66.1556 253.041 66.6173 252.897 66.9795 252.61C67.3417 252.322 67.6098 251.944 67.7838 251.475C67.9578 251.006 68.0448 250.499 68.0448 249.952C68.0448 249.405 67.9578 248.895 67.7838 248.423C67.6098 247.951 67.3417 247.569 66.9795 247.278C66.6173 246.987 66.1556 246.841 65.5945 246.841C65.0335 246.841 64.5718 246.987 64.2096 247.278C63.8474 247.569 63.5793 247.951 63.4053 248.423C63.2313 248.895 63.1443 249.405 63.1443 249.952C63.1443 250.499 63.2313 251.006 63.4053 251.475C63.5793 251.944 63.8474 252.322 64.2096 252.61C64.5718 252.897 65.0335 253.041 65.5945 253.041ZM71.2209 254V245.818H72.4354V247.054H72.5206C72.6697 246.649 72.9396 246.321 73.3303 246.069C73.7209 245.816 74.1612 245.69 74.6513 245.69C74.7436 245.69 74.859 245.692 74.9975 245.696C75.136 245.699 75.2408 245.705 75.3118 245.712V246.99C75.2692 246.979 75.1715 246.963 75.0188 246.942C74.8697 246.917 74.7116 246.905 74.5447 246.905C74.147 246.905 73.7919 246.988 73.4794 247.155C73.1705 247.319 72.9254 247.546 72.7443 247.837C72.5668 248.125 72.478 248.453 72.478 248.822V254H71.2209ZM79.8768 254.17C79.1097 254.17 78.4492 253.989 77.8952 253.627C77.3413 253.265 76.9151 252.766 76.6168 252.13C76.3185 251.495 76.1694 250.768 76.1694 249.952C76.1694 249.121 76.3221 248.387 76.6275 247.752C76.9364 247.113 77.3661 246.614 77.9165 246.255C78.4705 245.893 79.1168 245.712 79.8555 245.712C80.4308 245.712 80.9492 245.818 81.4109 246.031C81.8725 246.244 82.2507 246.543 82.5455 246.926C82.8402 247.31 83.0231 247.757 83.0941 248.268H81.837C81.7411 247.896 81.5281 247.565 81.1978 247.278C80.8711 246.987 80.4308 246.841 79.8768 246.841C79.3867 246.841 78.957 246.969 78.5877 247.224C78.2219 247.477 77.9361 247.833 77.7301 248.295C77.5277 248.753 77.4265 249.291 77.4265 249.909C77.4265 250.541 77.5259 251.092 77.7248 251.56C77.9272 252.029 78.2113 252.393 78.5771 252.652C78.9464 252.912 79.3796 253.041 79.8768 253.041C80.2035 253.041 80.5 252.984 80.7663 252.871C81.0327 252.757 81.2582 252.594 81.4428 252.381C81.6275 252.168 81.7589 251.912 81.837 251.614H83.0941C83.0231 252.097 82.8473 252.532 82.5668 252.919C82.2898 253.302 81.9222 253.608 81.4641 253.835C81.0096 254.059 80.4805 254.17 79.8768 254.17ZM84.9318 254V245.818H86.1889V254H84.9318ZM85.571 244.455C85.326 244.455 85.1147 244.371 84.9371 244.204C84.7631 244.037 84.6761 243.837 84.6761 243.602C84.6761 243.368 84.7631 243.167 84.9371 243C85.1147 242.833 85.326 242.75 85.571 242.75C85.8161 242.75 86.0256 242.833 86.1996 243C86.3771 243.167 86.4659 243.368 86.4659 243.602C86.4659 243.837 86.3771 244.037 86.1996 244.204C86.0256 244.371 85.8161 244.455 85.571 244.455ZM89.4076 254.085C89.1448 254.085 88.9193 253.991 88.7311 253.803C88.5429 253.615 88.4488 253.389 88.4488 253.126C88.4488 252.864 88.5429 252.638 88.7311 252.45C88.9193 252.262 89.1448 252.168 89.4076 252.168C89.6704 252.168 89.8959 252.262 90.0841 252.45C90.2723 252.638 90.3664 252.864 90.3664 253.126C90.3664 253.3 90.322 253.46 90.2332 253.606C90.148 253.751 90.0326 253.869 89.887 253.957C89.7449 254.043 89.5851 254.085 89.4076 254.085Z" fill="#0A2134"/>
</g>
<defs>
<filter id="filter0_d_4411_1783" x="0" y="0" width="306" height="314" filterUnits="userSpaceOnUse" color-interpolation-filters="sRGB">
<feFlood flood-opacity="0" result="BackgroundImageFix"/>
<feColorMatrix in="SourceAlpha" type="matrix" values="0 0 0 0 0 0 0 0 0 0 0 0 0 0 0 0 0 0 127 0" result="hardAlpha"/>
<feMorphology radius="2" operator="erode" in="SourceAlpha" result="effect1_dropShadow_4411_1783"/>
<feOffset dy="4"/>
<feGaussianBlur stdDeviation="10"/>
<feColorMatrix type="matrix" values="0 0 0 0 0 0 0 0 0 0.184314 0 0 0 0 0.345098 0 0 0 0.08 0"/>
<feBlend mode="normal" in2="BackgroundImageFix" result="effect1_dropShadow_4411_1783"/>
<feBlend mode="normal" in="SourceGraphic" in2="effect1_dropShadow_4411_1783" result="shape"/>
</filter>
<filter id="filter1_ddd_4411_1783" x="38" y="42" width="64" height="64" filterUnits="userSpaceOnUse" color-interpolation-filters="sRGB">
<feFlood flood-opacity="0" result="BackgroundImageFix"/>
<feColorMatrix in="SourceAlpha" type="matrix" values="0 0 0 0 0 0 0 0 0 0 0 0 0 0 0 0 0 0 127 0" result="hardAlpha"/>
<feMorphology radius="4" operator="dilate" in="SourceAlpha" result="effect1_dropShadow_4411_1783"/>
<feOffset/>
<feColorMatrix type="matrix" values="0 0 0 0 0.94902 0 0 0 0 0.956863 0 0 0 0 0.968627 0 0 0 1 0"/>
<feBlend mode="normal" in2="BackgroundImageFix" result="effect1_dropShadow_4411_1783"/>
<feColorMatrix in="SourceAlpha" type="matrix" values="0 0 0 0 0 0 0 0 0 0 0 0 0 0 0 0 0 0 127 0" result="hardAlpha"/>
<feOffset dy="1"/>
<feGaussianBlur stdDeviation="1"/>
<feColorMatrix type="matrix" values="0 0 0 0 0.0627451 0 0 0 0 0.0941176 0 0 0 0 0.156863 0 0 0 0.06 0"/>
<feBlend mode="normal" in2="effect1_dropShadow_4411_1783" result="effect2_dropShadow_4411_1783"/>
<feColorMatrix in="SourceAlpha" type="matrix" values="0 0 0 0 0 0 0 0 0 0 0 0 0 0 0 0 0 0 127 0" result="hardAlpha"/>
<feOffset dy="1"/>
<feGaussianBlur stdDeviation="1.5"/>
<feColorMatrix type="matrix" values="0 0 0 0 0.0627451 0 0 0 0 0.0941176 0 0 0 0 0.156863 0 0 0 0.1 0"/>
<feBlend mode="normal" in2="effect2_dropShadow_4411_1783" result="effect3_dropShadow_4411_1783"/>
<feBlend mode="normal" in="SourceGraphic" in2="effect3_dropShadow_4411_1783" result="shape"/>
</filter>
</defs>
</svg>
